<?xml version="1.0" encoding="UTF-8"?>
<!DOCTYPE svg PUBLIC "-//W3C//DTD SVG 1.1//EN" "http://www.w3.org/Graphics/SVG/1.1/DTD/svg11.dtd">
<!-- Creator: CorelDRAW -->
<svg xmlns="http://www.w3.org/2000/svg" xml:space="preserve" width="574px" height="167px" version="1.1" style="shape-rendering:geometricPrecision; text-rendering:geometricPrecision; image-rendering:optimizeQuality; fill-rule:evenodd; clip-rule:evenodd"
viewBox="0 0 673.98 196"
 xmlns:xlink="http://www.w3.org/1999/xlink"
 xmlns:xodm="http://www.corel.com/coreldraw/odm/2003">
 <defs>
  <style type="text/css">
   <![CDATA[
    .str0 {stroke:black;stroke-width:0.15;stroke-miterlimit:22.9256}
    .fil0 {fill:black}
    .fil3 {fill:black;fill-rule:nonzero}
    .fil1 {fill:#C8102E;fill-rule:nonzero}
    .fil2 {fill:white;fill-rule:nonzero}
   ]]>
  </style>
 </defs>
 <g id="Слой_x0020_1">
  <metadata id="CorelCorpID_0Corel-Layer"/>
  <g id="_2337049395344">
   <rect class="fil0 str0" x="0.07" y="0.07" width="673.84" height="195.86" rx="20.98" ry="20.98"/>
   <g>
    <path class="fil1" d="M137.78 26.3l-71.81 0c-27.48,0.83 -35.07,15.17 -35.79,35.8l0 71.8c0.72,20.63 8.31,34.97 35.79,35.8l71.81 0c27.48,-0.83 35.06,-15.17 35.79,-35.8l0 -71.8c-0.73,-20.63 -8.31,-34.97 -35.79,-35.8z"/>
    <polygon class="fil2" points="153.85,116.76 157.65,116.76 157.65,97.95 153.85,97.95 "/>
    <polygon class="fil2" points="138.89,113.28 138.89,108.73 145.86,108.73 145.86,105.25 138.89,105.25 138.89,101.43 148.94,101.43 148.94,97.95 135.1,97.95 135.1,116.76 149.33,116.76 149.33,113.28 "/>
    <polygon class="fil2" points="128.24,97.95 123.99,110.83 119.97,98.64 119.74,97.95 116.58,97.95 116.35,98.64 112.33,110.83 108.08,97.95 104.25,97.95 110.61,116.76 114,116.76 114.14,116.33 118.16,104.14 122.18,116.33 122.32,116.76 125.71,116.76 132.07,97.95 "/>
    <path class="fil2" d="M92.84 109.43l2.77 -6.27 2.78 6.27 -5.55 0zm11.05 3.43l-1.52 -3.43 -4.77 -10.76 -0.32 -0.72 -3.33 0 -0.32 0.72 -4.77 10.76 -1.52 3.43 -1.72 3.9 3.98 0 1.72 -3.9 8.59 0 1.73 3.9 3.97 0 -1.72 -3.9z"/>
    <path class="fil2" d="M80 97.95l-0.04 0 0 11.83c-0.28,2.12 -2.09,3.76 -4.29,3.76 -2.2,0 -4.02,-1.64 -4.3,-3.76l0 -11.83 -3.79 0 0 11.71c0,2.77 1.53,5.18 3.79,6.44 0.51,0.28 1.05,0.5 1.62,0.66 0.62,0.17 1.28,0.26 1.95,0.26l1.46 0c0.67,0 1.32,-0.09 1.94,-0.26 0.57,-0.16 1.12,-0.38 1.62,-0.66 2.27,-1.26 3.8,-3.67 3.8,-6.44l0 -11.71 -3.76 0z"/>
    <polygon class="fil2" points="58.53,97.95 58.53,105.53 49.89,105.53 49.89,97.95 46.1,97.95 46.1,116.76 49.89,116.76 49.89,109.17 58.53,109.17 58.53,116.76 62.33,116.76 62.33,97.95 "/>
    <path class="fil2" d="M122.35 50.1l0 0.59c0,11.02 -8.94,19.96 -19.97,19.96l-1.01 0c-11.03,0 -19.97,-8.94 -19.97,-19.96l0 -0.59 -3.48 0c0.03,13.2 10.74,23.9 23.95,23.9 13.21,0 23.93,-10.7 23.95,-23.9l-3.47 0z"/>
    <path class="fil2" d="M222.46 49.58l0 -4.01 14.49 -0.02 0 12.7c-2.22,1.77 -4.52,3.1 -6.88,4 -2.37,0.89 -4.8,1.34 -7.28,1.34 -3.37,0 -6.42,-0.72 -9.17,-2.16 -2.74,-1.44 -4.81,-3.52 -6.22,-6.24 -1.39,-2.73 -2.1,-5.77 -2.1,-9.13 0,-3.33 0.7,-6.44 2.1,-9.32 1.39,-2.89 3.39,-5.03 6,-6.43 2.62,-1.4 5.63,-2.1 9.04,-2.1 2.47,0 4.71,0.4 6.71,1.2 1.99,0.8 3.56,1.92 4.7,3.35 1.13,1.43 2,3.3 2.59,5.6l-4.08 1.12c-0.52,-1.74 -1.16,-3.11 -1.92,-4.11 -0.76,-1 -1.85,-1.79 -3.27,-2.39 -1.41,-0.6 -2.98,-0.9 -4.71,-0.9 -2.07,0 -3.86,0.32 -5.37,0.95 -1.51,0.62 -2.73,1.45 -3.65,2.48 -0.93,1.03 -1.65,2.16 -2.16,3.39 -0.87,2.11 -1.31,4.41 -1.31,6.88 0,3.05 0.53,5.6 1.58,7.66 1.05,2.05 2.58,3.57 4.59,4.57 2,1 4.13,1.49 6.39,1.49 1.96,0 3.87,-0.37 5.74,-1.13 1.87,-0.75 3.28,-1.56 4.25,-2.41l0 -6.38 -10.06 0z"/>
    <polygon class="fil2" points="243.72,63.01 243.72,28.79 268.46,28.79 268.46,32.83 248.25,32.83 248.25,43.31 267.18,43.31 267.18,47.32 248.25,47.32 248.25,58.97 269.26,58.97 269.26,63.01 "/>
    <polygon class="fil2" points="284.21,63.01 284.21,32.83 272.94,32.83 272.94,28.79 300.06,28.79 300.06,32.83 288.74,32.83 288.74,63.01 "/>
    <polygon class="fil2" points="317.89,63.01 322.42,63.01 322.42,28.79 317.89,28.79 "/>
    <polygon class="fil2" points="330.36,63.01 330.36,28.79 335,28.79 352.97,55.65 352.97,28.79 357.31,28.79 357.31,63.01 352.67,63.01 334.7,36.12 334.7,63.01 "/>
    <path class="fil2" d="M381.49 46.41c0,4.12 1.11,7.37 3.33,9.74 2.21,2.38 5,3.56 8.34,3.56 3.41,0 6.21,-1.19 8.41,-3.59 2.21,-2.4 3.31,-5.8 3.31,-10.2 0,-2.79 -0.47,-5.22 -1.41,-7.29 -0.95,-2.08 -2.32,-3.69 -4.14,-4.84 -1.81,-1.14 -3.84,-1.71 -6.1,-1.71 -3.2,0 -5.96,1.1 -8.27,3.3 -2.31,2.2 -3.47,5.88 -3.47,11.03zm-4.67 -0.07c0,-5.68 1.53,-10.12 4.58,-13.34 3.05,-3.21 6.99,-4.82 11.81,-4.82 3.16,0 6,0.76 8.54,2.27 2.54,1.51 4.47,3.61 5.8,6.31 1.33,2.7 2,5.76 2,9.18 0,3.48 -0.7,6.58 -2.11,9.32 -1.39,2.73 -3.38,4.81 -5.95,6.22 -2.56,1.41 -5.33,2.11 -8.31,2.11 -3.22,0 -6.09,-0.78 -8.63,-2.34 -2.54,-1.55 -4.46,-3.67 -5.77,-6.37 -1.3,-2.69 -1.96,-5.54 -1.96,-8.54z"/>
    <polygon class="fil2" points="415.33,63.01 415.33,28.79 419.98,28.79 437.95,55.65 437.95,28.79 442.29,28.79 442.29,63.01 437.65,63.01 419.67,36.12 419.67,63.01 "/>
    <path class="fil2" d="M221.06 122.81l21.65 0 -6.66 -17.68c-2.04,-5.38 -3.55,-9.79 -4.54,-13.25 -0.81,4.1 -1.96,8.16 -3.44,12.2l-7.01 18.73zm-18.43 26.23l24.53 -63.87 9.11 0 26.13 63.87 -9.63 0 -7.44 -19.34 -26.71 0 -7.02 19.34 -8.97 0z"/>
    <path class="fil3" d="M221.06 122.81l0 0.32 22.11 0 -6.83 -18.12c-2.03,-5.36 -3.54,-9.77 -4.52,-13.21l-0.36 -1.27 -0.26 1.29c-0.81,4.08 -1.95,8.13 -3.43,12.15l0.01 0 -7.18 19.16 0.46 0 0 -0.32 0.3 0.12 7.01 -18.74 0 0c1.49,-4.05 2.64,-8.13 3.46,-12.24l-0.32 -0.07 -0.3 0.09c0.99,3.47 2.5,7.89 4.54,13.27l6.5 17.26 -21.19 0 0 0.31 0.3 0.12 -0.3 -0.12zm-18.43 26.23l0.3 0.11 24.45 -63.66 8.67 0 25.88 63.23 -8.94 0 -7.45 -19.34 -27.14 0 -7.02 19.34 -8.75 0 0 0.32 0.3 0.11 -0.3 -0.11 0 0.32 9.2 0 7.01 -19.34 26.27 0 7.45 19.34 10.32 0 -26.4 -64.5 -9.54 0 -24.77 64.5 0.46 0 0 -0.32z"/>
    <path class="fil2" d="M275.26 126.17c0,5.95 1.2,10.35 3.61,13.2 2.41,2.85 5.33,4.27 8.76,4.27 3.48,0 6.47,-1.47 8.95,-4.42 2.49,-2.95 3.73,-7.52 3.73,-13.7 0,-5.9 -1.22,-10.32 -3.64,-13.25 -2.43,-2.93 -5.33,-4.4 -8.69,-4.4 -3.34,0 -6.3,1.56 -8.87,4.68 -2.57,3.13 -3.85,7.67 -3.85,13.62zm-7.11 40.6l0 -64 7.15 0 0 6.02c1.68,-2.35 3.59,-4.12 5.71,-5.3 2.12,-1.17 4.69,-1.76 7.71,-1.76 3.95,0 7.43,1.02 10.45,3.05 3.03,2.03 5.3,4.9 6.84,8.6 1.54,3.71 2.31,7.76 2.31,12.18 0,4.73 -0.85,9 -2.55,12.79 -1.69,3.79 -4.16,6.69 -7.4,8.71 -3.24,2.02 -6.65,3.03 -10.22,3.03 -2.61,0 -4.96,-0.55 -7.03,-1.66 -2.08,-1.1 -3.79,-2.5 -5.12,-4.18l0 22.52 -7.85 0z"/>
    <path class="fil3" d="M275.26 126.17l-0.32 0c0,5.99 1.21,10.47 3.69,13.41 1.23,1.45 2.59,2.54 4.1,3.28 1.5,0.73 3.14,1.1 4.9,1.1 1.79,0 3.46,-0.38 4.99,-1.14 1.54,-0.76 2.94,-1.9 4.21,-3.4 2.55,-3.03 3.79,-7.68 3.79,-13.9 0,-5.94 -1.21,-10.43 -3.7,-13.45 -1.24,-1.5 -2.6,-2.63 -4.1,-3.38 -1.49,-0.76 -3.11,-1.14 -4.84,-1.14 -1.72,0 -3.35,0.41 -4.87,1.21 -1.53,0.8 -2.94,2.01 -4.24,3.59 -2.64,3.21 -3.93,7.82 -3.93,13.82l0.63 0c0,-5.91 1.28,-10.37 3.79,-13.41 1.26,-1.54 2.61,-2.68 4.04,-3.43 1.44,-0.76 2.96,-1.14 4.58,-1.14 1.63,0 3.15,0.36 4.55,1.07 1.41,0.71 2.7,1.78 3.89,3.21 2.36,2.85 3.57,7.19 3.57,13.05 0,6.14 -1.24,10.63 -3.65,13.49 -1.22,1.45 -2.55,2.52 -4,3.24 -1.45,0.71 -3.01,1.07 -4.71,1.07 -1.67,0 -3.21,-0.34 -4.62,-1.03 -1.42,-0.69 -2.71,-1.73 -3.9,-3.13 -2.33,-2.76 -3.54,-7.08 -3.54,-12.99l-0.31 0zm-7.11 40.6l0.32 0 0 -63.68 6.51 0 0 6.69 0.58 -0.81c1.66,-2.32 3.53,-4.05 5.6,-5.2 2.06,-1.14 4.58,-1.72 7.56,-1.72 3.89,0 7.31,1 10.28,2.99 2.96,2 5.2,4.81 6.72,8.47 1.52,3.66 2.28,7.67 2.28,12.05 0,4.69 -0.84,8.91 -2.52,12.65 -1.68,3.75 -4.1,6.59 -7.28,8.58 -3.2,1.99 -6.54,2.98 -10.05,2.98 -2.57,0 -4.86,-0.54 -6.88,-1.62 -2.05,-1.09 -3.72,-2.45 -5.02,-4.1l-0.57 -0.71 0 23.11 -7.53 0 0 0.32 0.32 0 -0.32 0 0 0.32 8.16 0 0 -22.84 -0.31 0 -0.25 0.2c1.36,1.72 3.1,3.14 5.22,4.26 2.12,1.13 4.52,1.7 7.18,1.7 3.63,0 7.1,-1.03 10.39,-3.08 3.29,-2.05 5.8,-5.01 7.52,-8.85 1.72,-3.84 2.58,-8.15 2.58,-12.92 0,-4.45 -0.78,-8.55 -2.33,-12.3 -1.56,-3.75 -3.88,-6.68 -6.96,-8.75 -3.07,-2.06 -6.63,-3.1 -10.63,-3.1 -3.06,0 -5.69,0.6 -7.87,1.8 -2.16,1.21 -4.1,3.01 -5.81,5.39l0.26 0.19 0.32 0 0 -6.33 -7.79 0 0 64.63 0.32 0 0 -0.32z"/>
    <path class="fil2" d="M324.88 126.17c0,5.95 1.2,10.35 3.61,13.2 2.41,2.85 5.33,4.27 8.76,4.27 3.49,0 6.47,-1.47 8.95,-4.42 2.49,-2.95 3.73,-7.52 3.73,-13.7 0,-5.9 -1.21,-10.32 -3.64,-13.25 -2.42,-2.93 -5.32,-4.4 -8.69,-4.4 -3.34,0 -6.3,1.56 -8.87,4.68 -2.57,3.13 -3.85,7.67 -3.85,13.62zm-7.1 40.6l0 -64 7.14 0 0 6.02c1.68,-2.35 3.59,-4.12 5.71,-5.3 2.12,-1.17 4.69,-1.76 7.71,-1.76 3.95,0 7.43,1.02 10.45,3.05 3.03,2.03 5.3,4.9 6.85,8.6 1.53,3.71 2.3,7.76 2.3,12.18 0,4.73 -0.85,9 -2.55,12.79 -1.69,3.79 -4.16,6.69 -7.4,8.71 -3.24,2.02 -6.64,3.03 -10.22,3.03 -2.61,0 -4.96,-0.55 -7.03,-1.66 -2.08,-1.1 -3.78,-2.5 -5.12,-4.18l0 22.52 -7.84 0z"/>
    <path class="fil3" d="M324.88 126.17l-0.32 0c0,5.99 1.21,10.47 3.69,13.41 1.23,1.45 2.6,2.54 4.1,3.28 1.5,0.73 3.14,1.1 4.9,1.1 1.79,0 3.46,-0.38 4.99,-1.14 1.54,-0.76 2.94,-1.9 4.21,-3.4 2.55,-3.03 3.8,-7.68 3.8,-13.9 0,-5.94 -1.22,-10.43 -3.71,-13.45 -1.24,-1.5 -2.6,-2.63 -4.1,-3.38 -1.49,-0.76 -3.11,-1.14 -4.84,-1.14 -1.72,0 -3.35,0.41 -4.87,1.21 -1.52,0.8 -2.94,2.01 -4.24,3.59 -2.64,3.21 -3.93,7.82 -3.93,13.82l0.64 0c0,-5.91 1.27,-10.37 3.78,-13.41 1.26,-1.54 2.61,-2.68 4.05,-3.43 1.43,-0.76 2.95,-1.14 4.57,-1.14 1.64,0 3.15,0.36 4.55,1.07 1.41,0.71 2.7,1.78 3.9,3.21 2.35,2.85 3.56,7.19 3.56,13.05 0,6.14 -1.24,10.63 -3.65,13.49 -1.22,1.45 -2.55,2.52 -4,3.24 -1.45,0.71 -3.01,1.07 -4.71,1.07 -1.67,0 -3.21,-0.34 -4.62,-1.03 -1.42,-0.69 -2.71,-1.73 -3.89,-3.13 -2.34,-2.76 -3.54,-7.08 -3.54,-12.99l-0.32 0zm-7.1 40.6l0.32 0 0 -63.68 6.5 0 0 6.69 0.58 -0.81c1.66,-2.32 3.53,-4.05 5.6,-5.2 2.07,-1.14 4.58,-1.72 7.56,-1.72 3.89,0 7.31,1 10.28,2.99 2.96,2 5.2,4.81 6.72,8.47 1.52,3.66 2.29,7.67 2.29,12.05 0,4.69 -0.85,8.91 -2.52,12.65 -1.68,3.75 -4.11,6.59 -7.29,8.58 -3.19,1.99 -6.54,2.98 -10.05,2.98 -2.57,0 -4.86,-0.54 -6.88,-1.62 -2.05,-1.09 -3.72,-2.45 -5.02,-4.1l-0.57 -0.71 0 23.11 -7.52 0 0 0.32 0.32 0 -0.32 0 0 0.32 8.16 0 0 -22.84 -0.32 0 -0.25 0.2c1.36,1.72 3.11,3.14 5.22,4.26 2.12,1.13 4.53,1.7 7.18,1.7 3.64,0 7.11,-1.03 10.39,-3.08 3.29,-2.05 5.81,-5.01 7.53,-8.85 1.72,-3.84 2.57,-8.15 2.57,-12.92 0,-4.45 -0.78,-8.55 -2.33,-12.3 -1.56,-3.75 -3.88,-6.68 -6.96,-8.75 -3.07,-2.06 -6.63,-3.1 -10.63,-3.1 -3.06,0 -5.69,0.6 -7.87,1.8 -2.16,1.21 -4.1,3.01 -5.81,5.39l0.26 0.19 0.32 0 0 -6.33 -7.78 0 0 64.63 0.32 0 0 -0.32z"/>
    <path class="fil2" d="M398.29 123.99l0 -7.49 27.05 -0.05 0 23.71c-4.15,3.31 -8.44,5.79 -12.85,7.47 -4.41,1.66 -8.95,2.5 -13.59,2.5 -6.28,0 -11.98,-1.34 -17.1,-4.03 -5.13,-2.69 -9,-6.57 -11.61,-11.65 -2.62,-5.08 -3.93,-10.76 -3.93,-17.04 0,-6.21 1.3,-12.01 3.9,-17.4 2.6,-5.39 6.34,-9.39 11.22,-12.01 4.88,-2.61 10.5,-3.92 16.86,-3.92 4.62,0 8.8,0.75 12.53,2.25 3.73,1.5 6.66,3.58 8.78,6.25 2.12,2.67 3.73,6.16 4.83,10.46l-7.62 2.09c-0.96,-3.25 -2.15,-5.81 -3.57,-7.67 -1.43,-1.86 -3.46,-3.35 -6.1,-4.47 -2.64,-1.11 -5.58,-1.67 -8.8,-1.67 -3.87,0 -7.21,0.58 -10.02,1.76 -2.82,1.18 -5.09,2.73 -6.82,4.64 -1.73,1.92 -3.07,4.02 -4.03,6.32 -1.63,3.95 -2.44,8.23 -2.44,12.85 0,5.69 0.98,10.46 2.94,14.29 1.96,3.83 4.81,6.68 8.56,8.54 3.75,1.86 7.73,2.79 11.94,2.79 3.66,0 7.23,-0.71 10.72,-2.12 3.48,-1.4 6.12,-2.91 7.92,-4.5l0 -11.9 -18.77 0z"/>
    <path class="fil3" d="M398.29 123.99l0.31 0 0 -7.17 26.42 -0.05 0 23.39 0.32 0 -0.2 -0.26c-4.13,3.3 -8.38,5.77 -12.76,7.43 -4.38,1.66 -8.87,2.48 -13.48,2.48 -6.23,0 -11.88,-1.33 -16.95,-3.99 -5.08,-2.66 -8.89,-6.49 -11.48,-11.52 -2.59,-5.03 -3.88,-10.66 -3.89,-16.89 0.01,-6.17 1.29,-11.92 3.87,-17.27 2.58,-5.33 6.27,-9.27 11.08,-11.85 4.83,-2.59 10.4,-3.89 16.71,-3.89 4.59,0 8.72,0.75 12.41,2.22 3.69,1.48 6.57,3.54 8.65,6.16 2.08,2.63 3.68,6.07 4.77,10.34l0.31 -0.08 -0.08 -0.31 -7.62 2.09 0.08 0.31 0.3 -0.09c-0.96,-3.28 -2.17,-5.87 -3.62,-7.78 -1.46,-1.9 -3.55,-3.42 -6.23,-4.56 -2.69,-1.14 -5.66,-1.7 -8.92,-1.7 -3.9,0 -7.28,0.59 -10.15,1.79 -2.85,1.19 -5.17,2.76 -6.93,4.72 -1.75,1.94 -3.11,4.08 -4.09,6.41l0 0c-1.64,3.99 -2.46,8.32 -2.46,12.97 0,5.73 0.98,10.54 2.98,14.44 1.98,3.88 4.89,6.79 8.7,8.67 3.79,1.89 7.82,2.83 12.08,2.83 3.7,0 7.31,-0.72 10.83,-2.14 3.51,-1.42 6.18,-2.93 8.02,-4.57l0.11 -0.09 0 -12.36 -19.09 0 0 0.32 0.31 0 -0.31 0 0 0.32 18.46 0 0 11.58 0.31 0 -0.21 -0.24c-1.76,1.56 -4.37,3.05 -7.84,4.45 -3.44,1.39 -6.97,2.09 -10.59,2.09 -4.17,0 -8.09,-0.92 -11.8,-2.76 -3.69,-1.83 -6.48,-4.62 -8.42,-8.39 -1.93,-3.78 -2.9,-8.49 -2.9,-14.15 0,-4.58 0.8,-8.82 2.41,-12.73l0 0c0.95,-2.26 2.27,-4.33 3.97,-6.23 1.7,-1.87 3.93,-3.39 6.71,-4.56 2.77,-1.15 6.07,-1.74 9.9,-1.74 3.19,0 6.07,0.56 8.67,1.66 2.61,1.1 4.59,2.56 5.97,4.36 1.39,1.82 2.57,4.34 3.52,7.57l0.09 0.3 8.23 -2.26 -0.08 -0.3c-1.11,-4.33 -2.74,-7.86 -4.89,-10.58 -2.16,-2.72 -5.14,-4.83 -8.91,-6.35 -3.78,-1.51 -7.99,-2.26 -12.65,-2.26 -6.4,0 -12.08,1.31 -17.01,3.95 -4.94,2.65 -8.73,6.71 -11.35,12.15 -2.62,5.43 -3.93,11.29 -3.93,17.54 0,6.32 1.31,12.05 3.95,17.18 2.64,5.14 6.57,9.08 11.75,11.79 5.17,2.71 10.93,4.07 17.25,4.07 4.68,0 9.25,-0.84 13.7,-2.53 4.45,-1.68 8.76,-4.19 12.94,-7.52l0.12 -0.09 0 -24.17 -27.69 0.04 0 8.13 0.32 0 0 -0.32z"/>
    <path class="fil2" d="M466.34 125.82c-2.85,1.16 -7.12,2.15 -12.81,2.96 -3.22,0.47 -5.51,0.99 -6.84,1.57 -1.34,0.58 -2.37,1.43 -3.09,2.55 -0.73,1.12 -1.09,2.36 -1.09,3.72 0,2.1 0.79,3.84 2.37,5.23 1.58,1.4 3.9,2.09 6.95,2.09 3.02,0 5.71,-0.66 8.06,-1.98 2.35,-1.32 4.08,-3.13 5.18,-5.42 0.85,-1.77 1.27,-4.39 1.27,-7.84l0 -2.88zm0.65 17.52c-2.91,2.46 -5.7,4.21 -8.39,5.22 -2.68,1.02 -5.57,1.53 -8.64,1.53 -5.09,0 -8.99,-1.24 -11.72,-3.73 -2.73,-2.48 -4.1,-5.65 -4.1,-9.52 0,-2.26 0.52,-4.33 1.55,-6.21 1.03,-1.87 2.38,-3.37 4.05,-4.5 1.67,-1.14 3.55,-1.99 5.64,-2.57 1.54,-0.41 3.87,-0.8 6.97,-1.18 6.33,-0.75 11,-1.66 13.99,-2.7 0.03,-1.08 0.04,-1.76 0.04,-2.05 0,-3.19 -0.74,-5.45 -2.22,-6.75 -2.01,-1.77 -4.98,-2.66 -8.93,-2.66 -3.69,0 -6.42,0.65 -8.17,1.94 -1.76,1.29 -3.06,3.58 -3.9,6.86l-7.67 -1.04c0.7,-3.29 1.85,-5.94 3.44,-7.95 1.6,-2.02 3.91,-3.58 6.93,-4.67 3.02,-1.09 6.52,-1.63 10.5,-1.63 3.95,0 7.16,0.46 9.63,1.39 2.47,0.93 4.28,2.1 5.44,3.51 1.17,1.41 1.98,3.19 2.44,5.34 0.27,1.33 0.4,3.75 0.4,7.23l0 10.46c0,7.29 0.16,11.89 0.5,13.83 0.33,1.93 0.99,3.78 1.98,5.55l-8.19 0c-0.81,-1.63 -1.34,-3.53 -1.57,-5.7z"/>
    <path class="fil3" d="M466.34 125.82l-0.12 -0.29c-2.81,1.14 -7.06,2.13 -12.74,2.94 -3.23,0.47 -5.53,0.99 -6.92,1.59 -1.38,0.6 -2.47,1.49 -3.23,2.67 -0.76,1.16 -1.14,2.47 -1.14,3.89 0,1.09 0.2,2.1 0.62,3.01 0.42,0.92 1.04,1.74 1.86,2.46 1.66,1.47 4.07,2.17 7.16,2.17 3.06,0 5.81,-0.67 8.21,-2.02 2.41,-1.35 4.19,-3.21 5.32,-5.56l0 0c0.88,-1.85 1.29,-4.5 1.3,-7.98l0 -3.35 -0.44 0.18 0.12 0.29 -0.32 0 0 2.88c0,3.43 -0.42,6 -1.23,7.7l0 0c-1.08,2.24 -2.75,3.99 -5.06,5.29 -2.3,1.29 -4.93,1.94 -7.9,1.94 -3.01,0 -5.24,-0.69 -6.74,-2.01 -0.76,-0.68 -1.33,-1.42 -1.7,-2.25 -0.37,-0.83 -0.57,-1.74 -0.57,-2.75 0.01,-1.3 0.35,-2.48 1.04,-3.55 0.69,-1.06 1.67,-1.87 2.96,-2.43 1.28,-0.55 3.54,-1.08 6.76,-1.54 5.7,-0.82 9.99,-1.81 12.88,-2.98l-0.12 -0.3 -0.32 0 0.32 0zm0.65 17.52l-0.21 -0.25c-2.88,2.45 -5.65,4.17 -8.29,5.18 -2.65,1 -5.49,1.5 -8.53,1.5 -5.04,0 -8.86,-1.23 -11.51,-3.64 -2.66,-2.43 -3.98,-5.5 -3.99,-9.29 0,-2.21 0.5,-4.23 1.51,-6.05 1.01,-1.84 2.32,-3.29 3.95,-4.4 1.64,-1.11 3.49,-1.95 5.55,-2.53l-0.09 -0.3 0.08 0.3c1.52,-0.4 3.83,-0.79 6.93,-1.16 6.34,-0.76 11.02,-1.66 14.05,-2.72l0.21 -0.08 0.01 -0.21c0.03,-1.08 0.04,-1.76 0.04,-2.06 0,-1.62 -0.19,-3.02 -0.57,-4.18 -0.39,-1.17 -0.97,-2.11 -1.76,-2.81 -2.09,-1.84 -5.15,-2.74 -9.14,-2.74 -3.73,0.01 -6.51,0.65 -8.36,2 -1.84,1.36 -3.17,3.72 -4.02,7.04l0.31 0.08 0.04 -0.31 -7.66 -1.05 -0.05 0.32 0.31 0.06c0.69,-3.24 1.82,-5.85 3.38,-7.82 1.56,-1.96 3.81,-3.48 6.79,-4.56 2.98,-1.07 6.44,-1.61 10.39,-1.61 3.93,0 7.1,0.46 9.52,1.37 2.43,0.92 4.2,2.06 5.31,3.41 1.12,1.37 1.92,3.09 2.37,5.2l0.31 -0.06 -0.31 0.06c0.25,1.29 0.39,3.69 0.39,7.17l0 10.46c0,3.64 0.04,6.62 0.12,8.93 0.09,2.31 0.21,3.96 0.38,4.95 0.34,1.97 1.02,3.86 2.02,5.66l0.28 -0.16 0 -0.32 -8.19 0 0 0.32 0.28 -0.14c-0.79,-1.59 -1.3,-3.45 -1.53,-5.6l-0.07 -0.6 -0.46 0.39 0.21 0.25 -0.32 0.03c0.24,2.21 0.77,4.15 1.61,5.81l0.08 0.18 8.93 0 -0.26 -0.47c-0.97,-1.75 -1.62,-3.56 -1.95,-5.46 -0.16,-0.93 -0.29,-2.56 -0.37,-4.86 -0.08,-2.3 -0.13,-5.27 -0.13,-8.91l0 -10.46c0,-3.5 -0.12,-5.91 -0.39,-7.29l0 -0.01c-0.48,-2.19 -1.31,-4.02 -2.51,-5.47 -1.21,-1.47 -3.08,-2.66 -5.58,-3.6 -2.52,-0.95 -5.77,-1.42 -9.74,-1.42 -4.01,0 -7.55,0.55 -10.61,1.65 -3.06,1.11 -5.42,2.69 -7.06,4.77 -1.64,2.06 -2.81,4.76 -3.51,8.08l-0.07 0.33 8.29 1.13 0.07 -0.27c0.83,-3.24 2.11,-5.46 3.78,-6.68 1.66,-1.23 4.32,-1.88 7.98,-1.88 3.9,0 6.8,0.87 8.72,2.58 0.69,0.61 1.22,1.44 1.57,2.53 0.36,1.08 0.54,2.41 0.54,3.98 0,0.28 -0.01,0.97 -0.04,2.04l0.32 0.01 -0.11 -0.3c-2.95,1.03 -7.6,1.93 -13.92,2.68 -3.11,0.38 -5.45,0.77 -7.01,1.19l-0.01 0 0.01 0c-2.13,0.59 -4.04,1.46 -5.74,2.61 -1.71,1.16 -3.1,2.71 -4.15,4.62 -1.06,1.92 -1.59,4.05 -1.59,6.36 0,3.94 1.41,7.22 4.2,9.76 2.81,2.55 6.81,3.81 11.94,3.81 3.11,0 6.03,-0.52 8.76,-1.55 2.73,-1.03 5.55,-2.8 8.48,-5.28l-0.21 -0.24 -0.32 0.03 0.32 -0.03z"/>
    <polygon class="fil2" points="486.25,149.04 494.09,149.04 494.09,85.17 486.25,85.17 "/>
    <polygon class="fil3" points="486.25,149.04 486.57,149.04 486.57,85.49 493.77,85.49 493.77,148.72 486.25,148.72 486.25,149.04 486.57,149.04 486.25,149.04 486.25,149.36 494.41,149.36 494.41,84.86 485.93,84.86 485.93,149.36 486.25,149.36 "/>
    <polygon class="fil2" points="506.07,149.04 513.91,149.04 513.91,85.17 506.07,85.17 "/>
    <polygon class="fil3" points="506.07,149.04 506.39,149.04 506.39,85.49 513.59,85.49 513.59,148.72 506.07,148.72 506.07,149.04 506.39,149.04 506.07,149.04 506.07,149.36 514.23,149.36 514.23,84.86 505.75,84.86 505.75,149.36 506.07,149.36 "/>
    <path class="fil2" d="M531.99 121.46l25.84 0c-0.35,-3.89 -1.34,-6.81 -2.97,-8.75 -2.49,-3.02 -5.73,-4.53 -9.71,-4.53 -3.6,0 -6.63,1.2 -9.08,3.61 -2.46,2.41 -3.82,5.64 -4.08,9.67zm25.75 12.68l8.1 1c-1.28,4.74 -3.64,8.41 -7.1,11.03 -3.46,2.61 -7.87,3.92 -13.24,3.92 -6.77,0 -12.14,-2.09 -16.1,-6.25 -3.96,-4.17 -5.95,-10.02 -5.95,-17.54 0,-7.78 2.01,-13.83 6.01,-18.12 4.01,-4.3 9.21,-6.45 15.6,-6.45 6.19,0 11.24,2.11 15.16,6.31 3.92,4.22 5.88,10.14 5.88,17.78 0,0.46 -0.01,1.16 -0.04,2.09l-34.5 0c0.29,5.09 1.72,8.98 4.31,11.68 2.58,2.7 5.81,4.05 9.67,4.05 2.88,0 5.33,-0.76 7.36,-2.27 2.04,-1.5 3.65,-3.92 4.84,-7.23z"/>
    <path class="fil3" d="M531.99 121.46l0 0.32 26.18 0 -0.03 -0.35c-0.35,-3.92 -1.35,-6.91 -3.03,-8.93l0 0.01c-1.28,-1.55 -2.75,-2.71 -4.41,-3.49 -1.67,-0.77 -3.52,-1.16 -5.55,-1.16 -3.67,-0.01 -6.8,1.24 -9.31,3.71 -2.51,2.47 -3.9,5.78 -4.17,9.87l-0.02 0.34 0.34 0 0 -0.32 0.32 0.03c0.26,-3.98 1.59,-7.12 3.98,-9.47 2.4,-2.35 5.33,-3.52 8.86,-3.53 1.95,0.01 3.7,0.37 5.28,1.11 1.57,0.73 2.96,1.83 4.19,3.31l0 0c1.57,1.87 2.54,4.73 2.89,8.58l0.32 -0.03 0 -0.32 -25.84 0 0 0.32 0.32 0.03 -0.32 -0.03zm25.75 12.68l-0.04 0.32 8.1 1 0.04 -0.32 -0.3 -0.08c-1.27,4.68 -3.6,8.28 -6.99,10.85 -3.39,2.57 -7.73,3.86 -13.05,3.86 -6.71,0 -11.97,-2.06 -15.87,-6.15 -3.89,-4.1 -5.86,-9.85 -5.86,-17.32 0,-7.73 1.99,-13.68 5.93,-17.9 3.95,-4.24 9.04,-6.35 15.36,-6.35 6.12,0 11.06,2.07 14.93,6.21 3.85,4.14 5.79,9.98 5.79,17.56 0,0.46 -0.01,1.16 -0.04,2.08l0.32 0.01 0 -0.32 -34.84 0 0.02 0.34c0.29,5.13 1.74,9.11 4.4,11.88 2.64,2.76 5.96,4.15 9.9,4.15 2.93,0 5.46,-0.77 7.55,-2.33 2.1,-1.56 3.74,-4.03 4.95,-7.38l-0.3 -0.11 -0.04 0.32 0.04 -0.32 -0.3 -0.11c-1.18,3.28 -2.76,5.63 -4.73,7.09 -1.97,1.46 -4.35,2.2 -7.17,2.2 -3.79,0 -6.91,-1.31 -9.44,-3.95 -2.52,-2.63 -3.94,-6.44 -4.23,-11.48l-0.31 0.02 0 0.32 34.81 0 0.01 -0.31c0.03,-0.93 0.04,-1.63 0.04,-2.1 0,-7.69 -1.97,-13.71 -5.96,-17.99 -3.98,-4.28 -9.14,-6.42 -15.4,-6.42 -6.46,0 -11.76,2.19 -15.83,6.55 -4.07,4.37 -6.1,10.5 -6.09,18.34 -0.01,7.58 1.99,13.51 6.03,17.76 4.02,4.23 9.5,6.35 16.33,6.35 5.42,0 9.91,-1.33 13.43,-3.99 3.52,-2.66 5.93,-6.4 7.22,-11.19l0.1 -0.36 -8.73 -1.07 -0.08 0.23 0.3 0.11z"/>
    <path class="fil2" d="M575.6 149.04l0 -46.27 7.06 0 0 7.02c1.8,-3.28 3.47,-5.45 4.99,-6.49 1.52,-1.05 3.2,-1.57 5.03,-1.57 2.64,0 5.33,0.84 8.06,2.53l-2.7 7.27c-1.92,-1.13 -3.83,-1.7 -5.76,-1.7 -1.71,0 -3.25,0.52 -4.61,1.55 -1.37,1.03 -2.34,2.46 -2.92,4.29 -0.87,2.79 -1.31,5.84 -1.31,9.15l0 24.22 -7.84 0z"/>
    <path class="fil3" d="M575.6 149.04l0.32 0 0 -45.95 6.42 0 0 7.94 0.6 -1.09c1.79,-3.26 3.44,-5.39 4.89,-6.38 1.47,-1.01 3.08,-1.51 4.85,-1.51 2.58,0 5.2,0.82 7.89,2.48l0.17 -0.27 -0.3 -0.12 -2.7 7.28 0.3 0.11 0.16 -0.27c-1.96,-1.16 -3.93,-1.75 -5.92,-1.75 -1.77,0 -3.39,0.54 -4.8,1.62 -1.42,1.07 -2.43,2.56 -3.03,4.44l0 0c-0.89,2.83 -1.33,5.91 -1.33,9.25l0 23.9 -7.52 0 0 0.32 0.32 0 -0.32 0 0 0.32 8.16 0 0 -24.54c0,-3.28 0.43,-6.3 1.29,-9.05l0 0c0.57,-1.78 1.5,-3.15 2.81,-4.14 1.31,-0.99 2.77,-1.48 4.42,-1.48 1.86,0 3.72,0.55 5.6,1.66l0.33 0.19 2.92 -7.88 -0.23 -0.13c-2.76,-1.71 -5.51,-2.58 -8.22,-2.58 -1.89,0 -3.64,0.55 -5.21,1.63 -1.6,1.1 -3.28,3.29 -5.09,6.59l0.28 0.16 0.32 0 0 -7.33 -7.7 0 0 46.9 0.32 0 0 -0.32z"/>
    <path class="fil2" d="M605.05 166.86l-0.87 -7.36c1.71,0.46 3.21,0.7 4.49,0.7 1.74,0 3.14,-0.3 4.18,-0.88 1.05,-0.58 1.9,-1.39 2.57,-2.43 0.49,-0.79 1.29,-2.74 2.4,-5.84 0.14,-0.44 0.37,-1.08 0.69,-1.92l-17.55 -46.36 8.44 0 9.64 26.8c1.24,3.4 2.36,6.97 3.35,10.72 0.9,-3.6 1.98,-7.12 3.22,-10.55l9.89 -26.97 7.85 0 -17.61 47.06c-1.88,5.08 -3.35,8.58 -4.39,10.5 -1.4,2.58 -3,4.48 -4.8,5.68 -1.8,1.21 -3.94,1.81 -6.45,1.81 -1.5,0 -3.19,-0.32 -5.05,-0.96z"/>
    <path class="fil3" d="M605.05 166.86l0.32 -0.04 -0.87 -7.36 -0.32 0.04 -0.08 0.3c1.73,0.48 3.25,0.71 4.57,0.71 1.78,0 3.22,-0.29 4.34,-0.91 1.09,-0.61 1.98,-1.46 2.68,-2.55l0 0c0.27,-0.42 0.59,-1.11 1,-2.09 0.4,-0.98 0.87,-2.25 1.43,-3.81l0 0 0 0c0.14,-0.43 0.37,-1.07 0.69,-1.91l0.04 -0.11 -17.43 -46.04 7.76 0 9.56 26.58 0 0.01c1.24,3.39 2.36,6.95 3.35,10.69l0.31 1.2 0.3 -1.21c0.9,-3.59 1.97,-7.09 3.22,-10.51l9.8 -26.76 7.17 0 -17.44 46.63 0 0c-1.89,5.07 -3.36,8.57 -4.38,10.45l0 0c-1.38,2.56 -2.95,4.41 -4.69,5.58 -1.75,1.16 -3.83,1.75 -6.28,1.75 -1.46,0 -3.11,-0.31 -4.95,-0.94l-0.1 0.3 0.32 -0.04 -0.32 0.04 -0.1 0.3c1.88,0.65 3.6,0.98 5.15,0.98 2.56,0 4.77,-0.62 6.63,-1.86 1.86,-1.25 3.49,-3.19 4.89,-5.8l0 0c1.07,-1.95 2.53,-5.45 4.43,-10.54l0 0 17.76 -47.48 -8.53 0 -9.96 27.17c-1.26,3.44 -2.34,6.97 -3.24,10.58l0.31 0.08 0.31 -0.09c-0.99,-3.75 -2.11,-7.34 -3.37,-10.74l0 0 -9.7 -27 -9.14 0 17.73 46.78 0.29 -0.11 -0.29 -0.12c-0.32,0.85 -0.56,1.49 -0.7,1.94l0.3 0.1 -0.3 -0.11c-0.55,1.55 -1.03,2.81 -1.43,3.77 -0.39,0.97 -0.71,1.65 -0.94,2l0 0c-0.64,1.01 -1.46,1.78 -2.45,2.34 -0.98,0.54 -2.32,0.83 -4.03,0.83 -1.24,0 -2.71,-0.23 -4.4,-0.69l-0.46 -0.12 0.95 8.03 0.19 0.06 0.1 -0.3z"/>
   </g>
  </g>
 </g>
</svg>
