<?xml version="1.0" encoding="UTF-8"?>
<!DOCTYPE svg PUBLIC "-//W3C//DTD SVG 1.1//EN" "http://www.w3.org/Graphics/SVG/1.1/DTD/svg11.dtd">
<!-- Creator: CorelDRAW -->
<svg xmlns="http://www.w3.org/2000/svg" xml:space="preserve" width="574px" height="167px" version="1.1" style="shape-rendering:geometricPrecision; text-rendering:geometricPrecision; image-rendering:optimizeQuality; fill-rule:evenodd; clip-rule:evenodd"
viewBox="0 0 673.98 196"
 xmlns:xlink="http://www.w3.org/1999/xlink"
 xmlns:xodm="http://www.corel.com/coreldraw/odm/2003">
 <defs>
  <style type="text/css">
   <![CDATA[
    .str0 {stroke:black;stroke-width:0.15;stroke-miterlimit:22.9256}
    .fil0 {fill:black}
    .fil1 {fill:white;fill-rule:nonzero}
   ]]>
  </style>
 </defs>
 <g id="Слой_x0020_1">
  <metadata id="CorelCorpID_0Corel-Layer"/>
  <g id="_2337628352496">
   <rect class="fil0 str0" x="0.07" y="0.07" width="673.84" height="195.86" rx="20.98" ry="20.98"/>
   <g>
    <path class="fil1" d="M162.57 106.7c-3.42,-17.41 11.72,-26.71 12.83,-27.37 -2.33,-3.1 -5.02,-5.43 -7.75,-7.13 -9.05,-5.64 -20.07,-6.17 -26.63,-3.28 -0.07,0.03 -0.13,0.06 -0.2,0.08 -6.4,2.8 -13.67,2.8 -20.08,0 -0.06,-0.02 -0.13,-0.05 -0.19,-0.08 -6.56,-2.89 -17.59,-2.36 -26.64,3.28 -9.05,5.64 -17.84,18.37 -13.38,42.78 4.46,24.4 20.73,39.23 20.73,39.23 0,0 7.74,6.69 17.98,2.23 6.39,-2.79 9.31,-3.27 10.59,-3.24 0.64,0.02 1.27,0.02 1.91,0 1.28,-0.03 4.19,0.45 10.59,3.24 10.23,4.46 17.97,-2.23 17.97,-2.23 0,0 11.41,-10.39 17.74,-28.09 -5.45,-2.52 -13.23,-8.02 -15.47,-19.42z"/>
    <path class="fil1" d="M127.9 68c0,0 -2.86,-24.32 24.54,-28.68l-0.11 3.26c-0.46,13.47 -10.99,24.43 -24.43,25.42l0 0z"/>
    <path class="fil1" d="M233.71 47c0,-2.07 -0.26,-4 -0.79,-5.77 -0.52,-1.78 -1.33,-3.31 -2.43,-4.6 -1.09,-1.28 -2.47,-2.29 -4.15,-3.02 -1.67,-0.72 -3.8,-1.09 -6.4,-1.09l-5.48 0 0 29.68 5.52 0c2.42,0 4.48,-0.3 6.16,-0.9 1.68,-0.59 3.08,-1.52 4.2,-2.77 1.13,-1.25 1.97,-2.82 2.53,-4.73 0.56,-1.9 0.84,-4.17 0.84,-6.8zm3.61 -0.16c0,3 -0.37,5.64 -1.13,7.93 -0.75,2.29 -1.87,4.2 -3.33,5.75 -1.48,1.54 -3.29,2.71 -5.45,3.5 -2.17,0.79 -4.74,1.19 -7.74,1.19l-7.04 0c-0.32,0 -0.67,-0.13 -1.02,-0.37 -0.34,-0.25 -0.52,-0.71 -0.52,-1.37l0 -32.22c0,-0.66 0.18,-1.11 0.52,-1.36 0.35,-0.25 0.7,-0.37 1.02,-0.37l7.51 0c3.03,0 5.59,0.41 7.68,1.24 2.09,0.82 3.83,2 5.24,3.51 1.41,1.52 2.47,3.34 3.19,5.47 0.72,2.12 1.07,4.49 1.07,7.1z"/>
    <path class="fil1" d="M263.39 52.22c0,-1.42 -0.13,-2.77 -0.41,-4.06 -0.27,-1.28 -0.74,-2.42 -1.39,-3.4 -0.63,-0.99 -1.51,-1.77 -2.58,-2.35 -1.09,-0.58 -2.44,-0.87 -4.05,-0.87 -1.5,0 -2.79,0.27 -3.86,0.8 -1.09,0.54 -1.98,1.28 -2.68,2.22 -0.69,0.95 -1.2,2.07 -1.52,3.35 -0.34,1.29 -0.5,2.68 -0.5,4.17 0,1.43 0.14,2.8 0.42,4.1 0.27,1.29 0.73,2.43 1.37,3.4 0.65,0.98 1.51,1.75 2.6,2.32 1.07,0.57 2.43,0.85 4.05,0.85 1.49,0 2.78,-0.26 3.86,-0.8 1.09,-0.53 1.97,-1.26 2.66,-2.2 0.69,-0.94 1.2,-2.05 1.53,-3.34 0.33,-1.29 0.5,-2.69 0.5,-4.19zm3.47 -0.31c0,1.99 -0.25,3.82 -0.76,5.49 -0.53,1.68 -1.28,3.13 -2.32,4.36 -1.02,1.23 -2.28,2.19 -3.8,2.88 -1.54,0.69 -3.31,1.04 -5.33,1.04 -1.95,0 -3.66,-0.31 -5.11,-0.93 -1.47,-0.61 -2.69,-1.49 -3.68,-2.64 -0.99,-1.15 -1.72,-2.55 -2.22,-4.18 -0.48,-1.64 -0.72,-3.49 -0.72,-5.55 0,-1.98 0.25,-3.81 0.76,-5.49 0.52,-1.67 1.27,-3.12 2.29,-4.34 1.02,-1.22 2.29,-2.18 3.82,-2.85 1.52,-0.69 3.31,-1.03 5.36,-1.03 1.93,0 3.64,0.31 5.11,0.91 1.46,0.61 2.67,1.49 3.66,2.64 0.97,1.15 1.71,2.54 2.2,4.18 0.5,1.63 0.74,3.47 0.74,5.51z"/>
    <path class="fil1" d="M307.08 39.64c0,0.09 -0.01,0.2 -0.05,0.32 -0.03,0.12 -0.05,0.25 -0.08,0.4l-7.72 24.3c-0.04,0.15 -0.11,0.26 -0.22,0.36 -0.09,0.09 -0.24,0.16 -0.4,0.22 -0.16,0.05 -0.38,0.09 -0.65,0.11 -0.26,0.01 -0.57,0.02 -0.95,0.02 -0.39,0 -0.71,-0.01 -1,-0.04 -0.27,-0.02 -0.49,-0.07 -0.67,-0.12 -0.17,-0.06 -0.31,-0.13 -0.4,-0.22 -0.11,-0.09 -0.18,-0.2 -0.22,-0.33l-5.78 -19.7 -0.07 -0.22 -0.05 0.22 -5.41 19.7c-0.03,0.15 -0.11,0.26 -0.22,0.36 -0.1,0.09 -0.25,0.16 -0.45,0.22 -0.19,0.05 -0.43,0.09 -0.7,0.11 -0.29,0.01 -0.6,0.02 -0.94,0.02 -0.37,0 -0.69,-0.01 -0.95,-0.04 -0.25,-0.02 -0.47,-0.07 -0.64,-0.12 -0.18,-0.06 -0.31,-0.13 -0.39,-0.22 -0.1,-0.09 -0.16,-0.2 -0.2,-0.33l-7.67 -24.3c-0.06,-0.13 -0.1,-0.26 -0.12,-0.39 -0.03,-0.13 -0.04,-0.24 -0.04,-0.33 0,-0.13 0.02,-0.24 0.08,-0.33 0.05,-0.09 0.15,-0.16 0.27,-0.21 0.13,-0.05 0.29,-0.08 0.51,-0.09 0.19,-0.02 0.44,-0.03 0.74,-0.03 0.37,0 0.7,0.01 0.93,0.04 0.24,0.03 0.43,0.07 0.53,0.12 0.13,0.06 0.22,0.13 0.27,0.22 0.06,0.1 0.1,0.21 0.14,0.34l6.59 21.79 0.05 0.19 0.07 -0.19 5.99 -21.79c0.02,-0.13 0.08,-0.24 0.14,-0.34 0.07,-0.09 0.17,-0.16 0.27,-0.22 0.12,-0.05 0.29,-0.09 0.5,-0.12 0.22,-0.03 0.49,-0.04 0.82,-0.04 0.31,0 0.57,0.01 0.77,0.04 0.2,0.03 0.36,0.07 0.5,0.12 0.12,0.06 0.21,0.13 0.28,0.22 0.04,0.1 0.09,0.21 0.13,0.34l6.46 21.79 0.04 0.19 0.03 -0.19 6.56 -21.79c0.04,-0.13 0.1,-0.24 0.16,-0.34 0.07,-0.09 0.17,-0.16 0.3,-0.22 0.12,-0.05 0.3,-0.09 0.52,-0.12 0.23,-0.03 0.54,-0.04 0.91,-0.04 0.29,0 0.53,0.01 0.72,0.03 0.18,0.01 0.32,0.05 0.43,0.11 0.11,0.05 0.19,0.12 0.22,0.2 0.04,0.08 0.06,0.19 0.06,0.32z"/>
    <path class="fil1" d="M333.67 64.66c0,0.11 -0.03,0.21 -0.08,0.3 -0.06,0.09 -0.14,0.17 -0.27,0.22 -0.11,0.06 -0.29,0.1 -0.49,0.14 -0.21,0.04 -0.47,0.05 -0.79,0.05 -0.32,0 -0.59,-0.01 -0.81,-0.05 -0.21,-0.04 -0.38,-0.08 -0.5,-0.14 -0.12,-0.05 -0.2,-0.13 -0.26,-0.22 -0.06,-0.09 -0.09,-0.19 -0.09,-0.3l0 -14.82c0,-1.54 -0.1,-2.79 -0.36,-3.76 -0.23,-0.96 -0.59,-1.79 -1.06,-2.48 -0.49,-0.69 -1.09,-1.23 -1.84,-1.6 -0.74,-0.38 -1.61,-0.57 -2.6,-0.57 -1.28,0 -2.54,0.45 -3.81,1.35 -1.28,0.91 -2.61,2.23 -4.01,3.97l0 17.91c0,0.11 -0.02,0.21 -0.08,0.3 -0.05,0.09 -0.13,0.17 -0.25,0.22 -0.12,0.06 -0.3,0.1 -0.5,0.14 -0.22,0.04 -0.49,0.05 -0.82,0.05 -0.31,0 -0.57,-0.01 -0.78,-0.05 -0.22,-0.04 -0.39,-0.08 -0.51,-0.14 -0.14,-0.05 -0.22,-0.13 -0.26,-0.22 -0.05,-0.09 -0.08,-0.19 -0.08,-0.3l0 -24.96c0,-0.12 0.03,-0.22 0.08,-0.31 0.04,-0.09 0.12,-0.17 0.26,-0.23 0.12,-0.07 0.28,-0.11 0.48,-0.14 0.19,-0.03 0.45,-0.04 0.75,-0.04 0.33,0 0.58,0.01 0.77,0.04 0.22,0.03 0.36,0.07 0.49,0.14 0.1,0.06 0.17,0.14 0.22,0.23 0.04,0.09 0.07,0.19 0.07,0.31l0 3.53c1.44,-1.6 2.84,-2.76 4.23,-3.48 1.37,-0.72 2.74,-1.08 4.1,-1.08 1.64,0 3.03,0.28 4.14,0.83 1.12,0.55 2.02,1.3 2.72,2.24 0.69,0.93 1.18,2.03 1.49,3.28 0.3,1.25 0.45,2.76 0.45,4.52l0 15.12z"/>
    <path class="fil1" d="M346.06 64.66c0,0.11 -0.03,0.21 -0.08,0.3 -0.06,0.09 -0.15,0.17 -0.27,0.22 -0.12,0.06 -0.29,0.1 -0.49,0.14 -0.21,0.04 -0.5,0.05 -0.82,0.05 -0.32,0 -0.58,-0.01 -0.79,-0.05 -0.2,-0.04 -0.38,-0.08 -0.5,-0.14 -0.13,-0.05 -0.22,-0.13 -0.27,-0.22 -0.04,-0.09 -0.07,-0.19 -0.07,-0.3l0 -37.18c0,-0.12 0.03,-0.22 0.07,-0.31 0.05,-0.09 0.14,-0.17 0.27,-0.23 0.12,-0.07 0.3,-0.11 0.5,-0.14 0.21,-0.03 0.47,-0.04 0.79,-0.04 0.32,0 0.61,0.01 0.82,0.04 0.2,0.03 0.37,0.07 0.49,0.14 0.12,0.06 0.21,0.14 0.27,0.23 0.05,0.09 0.08,0.19 0.08,0.31l0 37.18z"/>
    <path class="fil1" d="M373.86 52.22c0,-1.42 -0.15,-2.77 -0.42,-4.06 -0.28,-1.28 -0.72,-2.42 -1.37,-3.4 -0.64,-0.99 -1.5,-1.77 -2.59,-2.35 -1.09,-0.58 -2.44,-0.87 -4.07,-0.87 -1.48,0 -2.77,0.27 -3.86,0.8 -1.07,0.54 -1.96,1.28 -2.66,2.22 -0.69,0.95 -1.2,2.07 -1.52,3.35 -0.34,1.29 -0.5,2.68 -0.5,4.17 0,1.43 0.14,2.8 0.41,4.1 0.28,1.29 0.74,2.43 1.38,3.4 0.65,0.98 1.51,1.75 2.6,2.32 1.07,0.57 2.43,0.85 4.05,0.85 1.49,0 2.78,-0.26 3.86,-0.8 1.09,-0.53 1.97,-1.26 2.66,-2.2 0.69,-0.94 1.2,-2.05 1.53,-3.34 0.34,-1.29 0.5,-2.69 0.5,-4.19zm3.47 -0.31c0,1.99 -0.25,3.82 -0.76,5.49 -0.52,1.68 -1.3,3.13 -2.3,4.36 -1.03,1.23 -2.3,2.19 -3.84,2.88 -1.52,0.69 -3.29,1.04 -5.31,1.04 -1.95,0 -3.66,-0.31 -5.13,-0.93 -1.45,-0.61 -2.67,-1.49 -3.66,-2.64 -0.98,-1.15 -1.72,-2.55 -2.2,-4.18 -0.49,-1.64 -0.74,-3.49 -0.74,-5.55 0,-1.98 0.25,-3.81 0.76,-5.49 0.5,-1.67 1.27,-3.12 2.29,-4.34 1.02,-1.22 2.3,-2.18 3.82,-2.85 1.52,-0.69 3.31,-1.03 5.36,-1.03 1.95,0 3.64,0.31 5.11,0.91 1.46,0.61 2.67,1.49 3.66,2.64 0.96,1.15 1.7,2.54 2.2,4.18 0.5,1.63 0.74,3.47 0.74,5.51z"/>
    <path class="fil1" d="M398.91 52.88l-4.56 0c-1.32,0 -2.48,0.12 -3.47,0.36 -1,0.24 -1.82,0.59 -2.49,1.05 -0.66,0.46 -1.14,1.01 -1.47,1.65 -0.32,0.64 -0.48,1.38 -0.48,2.21 0,1.43 0.46,2.58 1.36,3.43 0.91,0.86 2.19,1.28 3.85,1.28 1.3,0 2.52,-0.33 3.65,-1 1.13,-0.67 2.33,-1.71 3.61,-3.11l0 -5.87zm3.28 11.78c0,0.18 -0.07,0.32 -0.19,0.42 -0.12,0.11 -0.27,0.18 -0.47,0.23 -0.19,0.04 -0.44,0.06 -0.78,0.06 -0.31,0 -0.58,-0.02 -0.79,-0.06 -0.23,-0.05 -0.39,-0.12 -0.53,-0.23 -0.1,-0.1 -0.17,-0.24 -0.17,-0.42l0 -2.79c-1.12,1.22 -2.35,2.15 -3.71,2.82 -1.35,0.66 -2.75,0.99 -4.2,0.99 -1.31,0 -2.48,-0.17 -3.52,-0.51 -1.04,-0.34 -1.91,-0.83 -2.63,-1.47 -0.72,-0.63 -1.28,-1.4 -1.65,-2.3 -0.39,-0.9 -0.59,-1.91 -0.59,-3.03 0,-1.38 0.29,-2.58 0.86,-3.6 0.57,-1.02 1.38,-1.87 2.43,-2.55 1.04,-0.68 2.3,-1.19 3.77,-1.53 1.48,-0.34 3.12,-0.51 4.91,-0.51l3.98 0 0 -2.16c0,-1.06 -0.11,-2 -0.34,-2.82 -0.21,-0.82 -0.57,-1.51 -1.07,-2.06 -0.5,-0.55 -1.13,-0.96 -1.94,-1.24 -0.78,-0.27 -1.75,-0.41 -2.89,-0.41 -1.11,0 -2.1,0.13 -2.98,0.4 -0.88,0.26 -1.65,0.56 -2.31,0.89 -0.67,0.33 -1.21,0.63 -1.65,0.9 -0.42,0.27 -0.73,0.4 -0.92,0.4 -0.11,0 -0.21,-0.02 -0.31,-0.05 -0.08,-0.04 -0.16,-0.11 -0.23,-0.21 -0.06,-0.1 -0.12,-0.23 -0.13,-0.39 -0.03,-0.15 -0.04,-0.34 -0.04,-0.56 0,-0.39 0.03,-0.7 0.08,-0.93 0.05,-0.23 0.2,-0.46 0.43,-0.69 0.22,-0.23 0.63,-0.5 1.22,-0.81 0.6,-0.31 1.27,-0.6 2.02,-0.87 0.77,-0.27 1.59,-0.48 2.48,-0.65 0.89,-0.16 1.76,-0.25 2.65,-0.25 1.71,0 3.15,0.21 4.33,0.62 1.17,0.42 2.12,1.01 2.85,1.78 0.73,0.77 1.25,1.73 1.56,2.86 0.31,1.13 0.47,2.41 0.47,3.85l0 16.88z"/>
    <path class="fil1" d="M428.14 46.65c-1.37,-1.68 -2.7,-2.96 -3.98,-3.84 -1.28,-0.88 -2.62,-1.32 -4.02,-1.32 -1.27,0 -2.34,0.3 -3.24,0.91 -0.91,0.6 -1.65,1.4 -2.22,2.4 -0.57,0.99 -0.97,2.11 -1.24,3.36 -0.26,1.25 -0.38,2.52 -0.38,3.81 0,1.38 0.11,2.72 0.32,4.03 0.23,1.3 0.61,2.47 1.13,3.49 0.54,1.02 1.26,1.83 2.13,2.45 0.89,0.62 1.99,0.92 3.31,0.92 0.67,0 1.3,-0.09 1.94,-0.27 0.62,-0.18 1.26,-0.49 1.92,-0.91 0.67,-0.42 1.35,-0.97 2.06,-1.64 0.71,-0.67 1.46,-1.51 2.27,-2.5l0 -10.89zm3.28 18.01c0,0.13 -0.01,0.24 -0.06,0.33 -0.04,0.09 -0.14,0.16 -0.26,0.22 -0.11,0.05 -0.27,0.1 -0.44,0.12 -0.19,0.03 -0.42,0.04 -0.7,0.04 -0.3,0 -0.54,-0.01 -0.73,-0.04 -0.19,-0.02 -0.35,-0.07 -0.47,-0.12 -0.11,-0.06 -0.2,-0.13 -0.27,-0.22 -0.07,-0.09 -0.09,-0.2 -0.09,-0.33l0 -3.59c-1.33,1.44 -2.69,2.56 -4.12,3.38 -1.41,0.82 -2.96,1.23 -4.63,1.23 -1.8,0 -3.33,-0.35 -4.61,-1.05 -1.27,-0.7 -2.3,-1.65 -3.1,-2.84 -0.8,-1.2 -1.38,-2.6 -1.76,-4.21 -0.36,-1.61 -0.55,-3.31 -0.55,-5.11 0,-2.12 0.23,-4.03 0.7,-5.73 0.46,-1.7 1.13,-3.15 2.03,-4.34 0.9,-1.2 2.02,-2.12 3.34,-2.76 1.33,-0.64 2.86,-0.97 4.61,-0.97 1.51,0 2.88,0.34 4.15,1.01 1.25,0.67 2.47,1.66 3.68,2.97l0 -15.04c0,-0.11 0.03,-0.21 0.07,-0.3 0.05,-0.09 0.13,-0.17 0.27,-0.22 0.12,-0.06 0.29,-0.1 0.51,-0.14 0.21,-0.04 0.47,-0.05 0.78,-0.05 0.34,0 0.6,0.01 0.82,0.05 0.22,0.04 0.38,0.08 0.5,0.14 0.11,0.05 0.2,0.13 0.25,0.22 0.06,0.09 0.08,0.19 0.08,0.3l0 37.05z"/>
    <path class="fil1" d="M472.04 52.22c0,-1.42 -0.15,-2.77 -0.42,-4.06 -0.28,-1.28 -0.74,-2.42 -1.39,-3.4 -0.64,-0.99 -1.5,-1.77 -2.59,-2.35 -1.08,-0.58 -2.44,-0.87 -4.05,-0.87 -1.5,0 -2.77,0.27 -3.86,0.8 -1.09,0.54 -1.98,1.28 -2.67,2.22 -0.68,0.95 -1.19,2.07 -1.53,3.35 -0.32,1.29 -0.5,2.68 -0.5,4.17 0,1.43 0.15,2.8 0.42,4.1 0.28,1.29 0.74,2.43 1.37,3.4 0.65,0.98 1.52,1.75 2.6,2.32 1.09,0.57 2.45,0.85 4.06,0.85 1.48,0 2.77,-0.26 3.86,-0.8 1.09,-0.53 1.98,-1.26 2.66,-2.2 0.69,-0.94 1.2,-2.05 1.52,-3.34 0.34,-1.29 0.52,-2.69 0.52,-4.19zm3.47 -0.31c0,1.99 -0.26,3.82 -0.77,5.49 -0.52,1.68 -1.29,3.13 -2.31,4.36 -1.03,1.23 -2.29,2.19 -3.82,2.88 -1.52,0.69 -3.3,1.04 -5.32,1.04 -1.96,0 -3.66,-0.31 -5.12,-0.93 -1.47,-0.61 -2.68,-1.49 -3.68,-2.64 -0.98,-1.15 -1.7,-2.55 -2.19,-4.18 -0.5,-1.64 -0.74,-3.49 -0.74,-5.55 0,-1.98 0.26,-3.81 0.77,-5.49 0.5,-1.67 1.26,-3.12 2.29,-4.34 1,-1.22 2.28,-2.18 3.82,-2.85 1.52,-0.69 3.31,-1.03 5.34,-1.03 1.95,0 3.66,0.31 5.12,0.91 1.45,0.61 2.68,1.49 3.65,2.64 0.98,1.15 1.71,2.54 2.2,4.18 0.5,1.63 0.76,3.47 0.76,5.51z"/>
    <path class="fil1" d="M503.11 64.66c0,0.11 -0.03,0.21 -0.08,0.3 -0.05,0.09 -0.15,0.17 -0.26,0.22 -0.12,0.06 -0.28,0.1 -0.49,0.14 -0.22,0.04 -0.47,0.05 -0.8,0.05 -0.32,0 -0.59,-0.01 -0.8,-0.05 -0.22,-0.04 -0.38,-0.08 -0.5,-0.14 -0.12,-0.05 -0.22,-0.13 -0.27,-0.22 -0.04,-0.09 -0.07,-0.19 -0.07,-0.3l0 -14.82c0,-1.54 -0.13,-2.79 -0.36,-3.76 -0.24,-0.96 -0.61,-1.79 -1.09,-2.48 -0.47,-0.69 -1.08,-1.23 -1.82,-1.6 -0.75,-0.38 -1.62,-0.57 -2.62,-0.57 -1.26,0 -2.53,0.45 -3.79,1.35 -1.28,0.91 -2.61,2.23 -4.01,3.97l0 17.91c0,0.11 -0.03,0.21 -0.08,0.3 -0.06,0.09 -0.15,0.17 -0.26,0.22 -0.12,0.06 -0.29,0.1 -0.5,0.14 -0.21,0.04 -0.48,0.05 -0.82,0.05 -0.31,0 -0.56,-0.01 -0.78,-0.05 -0.21,-0.04 -0.37,-0.08 -0.51,-0.14 -0.13,-0.05 -0.21,-0.13 -0.27,-0.22 -0.04,-0.09 -0.06,-0.19 -0.06,-0.3l0 -24.96c0,-0.12 0.02,-0.22 0.06,-0.31 0.06,-0.09 0.14,-0.17 0.27,-0.23 0.14,-0.07 0.28,-0.11 0.49,-0.14 0.18,-0.03 0.44,-0.04 0.75,-0.04 0.31,0 0.56,0.01 0.78,0.04 0.2,0.03 0.35,0.07 0.46,0.14 0.12,0.06 0.18,0.14 0.24,0.23 0.04,0.09 0.07,0.19 0.07,0.31l0 3.53c1.44,-1.6 2.83,-2.76 4.22,-3.48 1.37,-0.72 2.74,-1.08 4.1,-1.08 1.64,0 3.02,0.28 4.15,0.83 1.11,0.55 2.01,1.3 2.71,2.24 0.69,0.93 1.19,2.03 1.48,3.28 0.31,1.25 0.46,2.76 0.46,4.52l0 15.12z"/>
    <path class="fil1" d="M537.01 63.17c0,0.38 -0.03,0.7 -0.09,0.94 -0.07,0.24 -0.17,0.42 -0.3,0.56 -0.15,0.14 -0.35,0.27 -0.61,0.39 -0.26,0.12 -0.57,0.22 -0.92,0.3 -0.35,0.08 -0.73,0.15 -1.11,0.19 -0.39,0.05 -0.76,0.07 -1.13,0.07 -1.23,0 -2.28,-0.16 -3.14,-0.49 -0.87,-0.33 -1.58,-0.84 -2.13,-1.51 -0.55,-0.67 -0.95,-1.52 -1.2,-2.55 -0.24,-1.03 -0.37,-2.24 -0.37,-3.64l0 -15.53 -3.72 0c-0.27,0 -0.47,-0.11 -0.62,-0.34 -0.14,-0.23 -0.21,-0.58 -0.21,-1.04 0,-0.24 0.01,-0.44 0.05,-0.62 0.04,-0.17 0.1,-0.32 0.16,-0.44 0.09,-0.12 0.17,-0.21 0.27,-0.26 0.1,-0.06 0.22,-0.08 0.35,-0.08l3.72 0 0 -6.13c0,-0.11 0.02,-0.21 0.06,-0.3 0.06,-0.09 0.14,-0.17 0.27,-0.24 0.12,-0.06 0.3,-0.11 0.51,-0.13 0.22,-0.03 0.47,-0.05 0.78,-0.05 0.34,0 0.61,0.02 0.82,0.05 0.21,0.02 0.38,0.07 0.49,0.13 0.13,0.07 0.21,0.15 0.27,0.24 0.05,0.09 0.08,0.19 0.08,0.3l0 6.13 6.9 0c0.13,0 0.24,0.02 0.35,0.08 0.09,0.05 0.17,0.14 0.26,0.26 0.08,0.12 0.13,0.27 0.16,0.44 0.04,0.18 0.05,0.38 0.05,0.62 0,0.46 -0.07,0.81 -0.23,1.04 -0.16,0.23 -0.36,0.34 -0.59,0.34l-6.9 0 0 15.09c0,1.89 0.27,3.34 0.82,4.33 0.54,0.99 1.52,1.49 2.96,1.49 0.44,0 0.85,-0.05 1.2,-0.14 0.36,-0.09 0.67,-0.19 0.95,-0.3 0.27,-0.11 0.51,-0.21 0.7,-0.31 0.2,-0.09 0.36,-0.13 0.51,-0.13 0.1,0 0.18,0.02 0.26,0.05 0.06,0.04 0.13,0.11 0.17,0.21 0.06,0.1 0.08,0.23 0.11,0.38 0.03,0.16 0.04,0.36 0.04,0.6z"/>
    <path class="fil1" d="M563.79 64.66c0,0.11 -0.02,0.21 -0.08,0.3 -0.05,0.09 -0.14,0.17 -0.25,0.22 -0.12,0.06 -0.28,0.1 -0.5,0.14 -0.22,0.04 -0.47,0.05 -0.79,0.05 -0.33,0 -0.6,-0.01 -0.81,-0.05 -0.22,-0.04 -0.38,-0.08 -0.5,-0.14 -0.12,-0.05 -0.21,-0.13 -0.27,-0.22 -0.04,-0.09 -0.08,-0.19 -0.08,-0.3l0 -14.82c0,-1.54 -0.12,-2.79 -0.35,-3.76 -0.24,-0.96 -0.6,-1.79 -1.09,-2.48 -0.47,-0.69 -1.07,-1.23 -1.81,-1.6 -0.76,-0.38 -1.63,-0.57 -2.63,-0.57 -1.26,0 -2.53,0.45 -3.79,1.35 -1.28,0.91 -2.61,2.23 -4.01,3.97l0 17.91c0,0.11 -0.03,0.21 -0.08,0.3 -0.05,0.09 -0.15,0.17 -0.26,0.22 -0.12,0.06 -0.28,0.1 -0.49,0.14 -0.22,0.04 -0.49,0.05 -0.82,0.05 -0.31,0 -0.57,-0.01 -0.78,-0.05 -0.22,-0.04 -0.38,-0.08 -0.52,-0.14 -0.13,-0.05 -0.21,-0.13 -0.26,-0.22 -0.04,-0.09 -0.07,-0.19 -0.07,-0.3l0 -37.18c0,-0.12 0.03,-0.22 0.07,-0.31 0.05,-0.09 0.13,-0.17 0.26,-0.23 0.14,-0.07 0.3,-0.11 0.52,-0.14 0.21,-0.03 0.47,-0.04 0.78,-0.04 0.33,0 0.6,0.01 0.82,0.04 0.21,0.03 0.37,0.07 0.49,0.14 0.11,0.06 0.21,0.14 0.26,0.23 0.05,0.09 0.08,0.19 0.08,0.31l0 15.58c1.37,-1.51 2.72,-2.62 4.09,-3.32 1.36,-0.71 2.72,-1.07 4.08,-1.07 1.64,0 3.01,0.28 4.14,0.83 1.12,0.55 2.02,1.3 2.72,2.24 0.68,0.93 1.18,2.03 1.48,3.28 0.31,1.25 0.45,2.76 0.45,4.52l0 15.12z"/>
    <path class="fil1" d="M589.86 49.93c0.06,-2.65 -0.55,-4.72 -1.81,-6.21 -1.28,-1.49 -3.12,-2.23 -5.56,-2.23 -1.25,0 -2.34,0.23 -3.29,0.7 -0.95,0.47 -1.74,1.09 -2.4,1.86 -0.66,0.77 -1.15,1.67 -1.5,2.69 -0.35,1.02 -0.56,2.08 -0.61,3.19l15.17 0zm3.39 0.96c0,0.66 -0.17,1.12 -0.52,1.37 -0.35,0.25 -0.69,0.37 -1.02,0.37l-17.02 0c0,1.55 0.16,2.94 0.46,4.19 0.31,1.25 0.8,2.33 1.5,3.22 0.7,0.89 1.6,1.57 2.73,2.05 1.12,0.48 2.51,0.72 4.15,0.72 1.16,0 2.19,-0.1 3.11,-0.3 0.91,-0.21 1.72,-0.43 2.38,-0.68 0.67,-0.25 1.22,-0.47 1.66,-0.68 0.42,-0.2 0.73,-0.3 0.92,-0.3 0.11,0 0.21,0.03 0.31,0.08 0.08,0.06 0.16,0.15 0.21,0.27 0.06,0.12 0.11,0.27 0.13,0.45 0.02,0.18 0.04,0.41 0.04,0.69 0,0.13 0,0.25 -0.02,0.37 -0.02,0.12 -0.04,0.23 -0.08,0.33 -0.03,0.11 -0.07,0.2 -0.12,0.29 -0.05,0.09 -0.12,0.19 -0.21,0.28 -0.1,0.09 -0.38,0.25 -0.87,0.48 -0.48,0.23 -1.1,0.46 -1.87,0.69 -0.78,0.23 -1.66,0.44 -2.69,0.62 -1.02,0.19 -2.12,0.28 -3.29,0.28 -1.94,0 -3.65,-0.29 -5.14,-0.87 -1.48,-0.58 -2.74,-1.44 -3.74,-2.57 -1.02,-1.13 -1.79,-2.53 -2.31,-4.2 -0.53,-1.68 -0.78,-3.62 -0.78,-5.82 0,-2.12 0.26,-4.01 0.8,-5.68 0.55,-1.68 1.32,-3.1 2.34,-4.27 1.01,-1.16 2.22,-2.06 3.65,-2.67 1.42,-0.62 3.01,-0.93 4.76,-0.93 1.87,0 3.47,0.32 4.8,0.94 1.32,0.63 2.41,1.47 3.26,2.53 0.86,1.05 1.49,2.28 1.88,3.68 0.41,1.39 0.59,2.87 0.59,4.41l0 0.66z"/>
    <path class="fil1" d="M303.48 135.12c-0.43,2.06 -1.12,3.94 -2.04,5.57 -0.91,1.56 -2.08,2.84 -3.49,3.8 -1.37,0.93 -3,1.39 -4.96,1.39 -2.16,0 -4.17,-0.69 -6.16,-2.1 -2.01,-1.42 -4.15,-3.49 -6.38,-6.14l0 -18.13c1.24,-1.52 2.42,-2.82 3.54,-3.86 1.19,-1.12 2.35,-2.04 3.44,-2.73 1.05,-0.67 2.07,-1.15 3.05,-1.44 0.99,-0.28 2.01,-0.43 3.05,-0.43 2.03,0 3.69,0.46 5,1.35 1.33,0.93 2.43,2.2 3.24,3.77 0.85,1.64 1.47,3.56 1.83,5.68 0.38,2.2 0.57,4.51 0.57,6.88 0,2.13 -0.23,4.28 -0.69,6.39zm8.58 -16.58c-0.67,-2.96 -1.77,-5.59 -3.27,-7.83 -1.52,-2.28 -3.53,-4.11 -5.96,-5.43 -2.42,-1.32 -5.38,-1.99 -8.77,-1.99 -1.57,0 -3.08,0.18 -4.48,0.53 -1.4,0.35 -2.79,0.9 -4.11,1.64 -1.31,0.71 -2.63,1.62 -3.92,2.69 -0.51,0.43 -1.03,0.89 -1.58,1.38l0 -6.24 -8.1 0 0 65.95 8.58 0 0 -20.76c0.39,0.34 0.78,0.66 1.14,0.96 1.15,0.93 2.32,1.71 3.47,2.33 1.19,0.64 2.42,1.11 3.66,1.41 1.24,0.31 2.57,0.46 3.97,0.46 3.26,0 6.19,-0.63 8.73,-1.87 2.56,-1.24 4.72,-3.02 6.46,-5.29 1.69,-2.24 3,-4.98 3.87,-8.15 0.86,-3.12 1.28,-6.66 1.28,-10.52 0,-3.26 -0.32,-6.38 -0.97,-9.27z"/>
    <path class="fil1" d="M355.15 135.12c-0.43,2.06 -1.13,3.94 -2.06,5.57 -0.89,1.56 -2.06,2.84 -3.47,3.8 -1.37,0.93 -3,1.39 -4.96,1.39 -2.16,0 -4.17,-0.69 -6.16,-2.1 -2.01,-1.42 -4.15,-3.49 -6.37,-6.14l0 -18.13c1.23,-1.52 2.41,-2.82 3.53,-3.86 1.19,-1.12 2.35,-2.04 3.44,-2.73 1.05,-0.67 2.07,-1.15 3.05,-1.44 0.99,-0.28 2.01,-0.43 3.05,-0.43 2.01,0 3.69,0.46 4.99,1.35 1.34,0.93 2.43,2.2 3.24,3.77 0.86,1.64 1.46,3.56 1.84,5.68 0.36,2.2 0.55,4.51 0.55,6.88 0,2.13 -0.23,4.28 -0.67,6.39zm8.58 -16.58c-0.67,-2.96 -1.77,-5.59 -3.27,-7.83 -1.53,-2.28 -3.53,-4.11 -5.96,-5.43 -2.43,-1.32 -5.38,-1.99 -8.78,-1.99 -1.56,0 -3.07,0.18 -4.47,0.53 -1.4,0.35 -2.79,0.9 -4.13,1.64 -1.29,0.71 -2.61,1.62 -3.9,2.69 -0.51,0.43 -1.05,0.89 -1.58,1.38l0 -6.24 -8.1 0 0 65.95 8.59 0 0 -20.76c0.38,0.34 0.76,0.66 1.13,0.96 1.15,0.93 2.32,1.71 3.47,2.33 1.19,0.64 2.41,1.11 3.66,1.41 1.24,0.31 2.57,0.46 3.97,0.46 3.24,0 6.19,-0.63 8.73,-1.87 2.54,-1.24 4.72,-3.02 6.45,-5.29 1.7,-2.24 3.01,-4.98 3.88,-8.15 0.85,-3.12 1.28,-6.66 1.28,-10.52 0,-3.26 -0.32,-6.38 -0.97,-9.27z"/>
    <path class="fil1" d="M507.19 128.54c0,2.52 -0.29,4.89 -0.84,7.03 -0.52,2.08 -1.36,3.89 -2.46,5.39 -1.08,1.46 -2.47,2.62 -4.17,3.46 -1.71,0.84 -3.79,1.26 -6.17,1.26 -2.61,0 -4.79,-0.45 -6.5,-1.34 -1.68,-0.89 -3.04,-2.1 -4.04,-3.61 -1.03,-1.56 -1.79,-3.42 -2.23,-5.52 -0.46,-2.17 -0.7,-4.5 -0.7,-6.92 0,-2.49 0.28,-4.84 0.83,-6.98 0.54,-2.08 1.36,-3.91 2.48,-5.42 1.06,-1.47 2.46,-2.64 4.17,-3.48 1.69,-0.84 3.78,-1.26 6.17,-1.26 2.6,0 4.78,0.46 6.48,1.36 1.69,0.91 3.05,2.14 4.04,3.66 1.04,1.58 1.79,3.44 2.24,5.52 0.47,2.16 0.7,4.47 0.7,6.85zm3.4 -18.52c-1.86,-2.18 -4.2,-3.87 -6.97,-5.02 -2.73,-1.13 -5.94,-1.71 -9.55,-1.71 -3.77,0 -7.13,0.64 -9.99,1.92 -2.87,1.28 -5.3,3.1 -7.23,5.41 -1.91,2.28 -3.36,5.03 -4.3,8.14 -0.93,3.06 -1.39,6.45 -1.39,10.07 0,3.74 0.45,7.16 1.35,10.16 0.9,3.06 2.3,5.7 4.15,7.87 1.87,2.18 4.21,3.88 6.99,5.04 2.73,1.15 5.94,1.74 9.55,1.74 3.74,0 7.09,-0.66 9.95,-1.95 2.87,-1.29 5.3,-3.13 7.22,-5.46 1.92,-2.3 3.37,-5.04 4.32,-8.15 0.94,-3.07 1.43,-6.46 1.43,-10.08 0,-3.71 -0.46,-7.12 -1.37,-10.12 -0.93,-3.05 -2.33,-5.69 -4.16,-7.86z"/>
    <path class="fil1" d="M226.94 127.33l9.91 -28.26 10.14 28.26 -20.05 0zm15.31 -38.17l-10.21 0 -21.28 64.38 8.71 0 4.74 -18.45 25.6 0 4.89 18.45 8.83 0 -21.28 -64.38z"/>
    <path class="fil1" d="M431.98 127.43c-0.92,-1.94 -2.14,-3.67 -3.65,-5.12 -1.48,-1.43 -3.17,-2.67 -5.02,-3.71 -1.79,-1 -3.63,-1.95 -5.49,-2.82 -1.81,-0.85 -3.62,-1.71 -5.36,-2.56 -1.69,-0.82 -3.19,-1.74 -4.5,-2.74 -1.25,-0.96 -2.26,-2.07 -3.01,-3.31 -0.7,-1.16 -1.06,-2.6 -1.06,-4.27 0,-1.15 0.21,-2.25 0.6,-3.28 0.41,-1.01 0.98,-1.87 1.78,-2.62 0.79,-0.76 1.83,-1.37 3.07,-1.81 1.26,-0.46 2.78,-0.7 4.52,-0.7 1.78,0 3.4,0.22 4.77,0.64 1.43,0.45 2.68,0.94 3.7,1.48 1.05,0.56 1.94,1.07 2.64,1.52l3.55 -7.42c-0.42,-0.42 -1.13,-0.88 -2.24,-1.46 -1.02,-0.54 -2.17,-1.03 -3.47,-1.45 -1.26,-0.42 -2.62,-0.78 -4.03,-1.04 -1.44,-0.28 -2.89,-0.42 -4.29,-0.42 -2.8,0 -5.4,0.38 -7.74,1.14 -2.39,0.76 -4.46,1.89 -6.19,3.35 -1.74,1.47 -3.1,3.28 -4.06,5.39 -0.95,2.1 -1.44,4.5 -1.44,7.12 0,2.68 0.47,5.05 1.39,7.04 0.91,1.96 2.14,3.7 3.63,5.15 1.45,1.42 3.12,2.68 4.96,3.74 1.78,1.01 3.62,1.97 5.47,2.84 1.81,0.85 3.61,1.71 5.34,2.57 1.66,0.81 3.16,1.72 4.46,2.71 1.23,0.94 2.22,2.05 2.98,3.28 0.69,1.16 1.06,2.6 1.06,4.28 0,1.67 -0.3,3.16 -0.88,4.45 -0.57,1.27 -1.38,2.35 -2.42,3.21 -1.05,0.88 -2.33,1.57 -3.79,2.05 -1.51,0.48 -3.19,0.73 -5.01,0.73 -2.28,0 -4.29,-0.26 -5.97,-0.79 -1.75,-0.54 -3.25,-1.13 -4.49,-1.75 -1.25,-0.64 -2.27,-1.22 -3.04,-1.75l-1.78 8.89c1.01,0.56 2.26,1.13 3.72,1.67 1.45,0.54 3.12,1.01 4.96,1.39 1.87,0.39 3.87,0.59 5.97,0.59 3.08,0 5.97,-0.43 8.58,-1.29 2.67,-0.86 5,-2.13 6.95,-3.78 1.96,-1.66 3.51,-3.72 4.58,-6.1 1.09,-2.37 1.64,-5.08 1.64,-8.06 0,-2.65 -0.47,-5 -1.39,-6.98z"/>
    <path class="fil1" d="M461.6 145.1c-0.43,0.17 -0.93,0.33 -1.5,0.48 -0.52,0.13 -1.11,0.2 -1.77,0.2 -2.65,0 -3.54,-1.08 -3.98,-1.89 -0.84,-1.53 -1.27,-3.87 -1.27,-6.95l0 -25.16 10.45 0 0 -7.71 -10.45 0 0 -9.38 -8.58 3.79 0 5.59 -4.67 0 0 7.71 4.67 0 0 25.93c0,2.56 0.23,4.83 0.69,6.74 0.49,2.02 1.29,3.72 2.39,5.06 1.13,1.37 2.58,2.4 4.33,3.06 1.67,0.65 3.7,0.97 6.04,0.97 0.69,0 1.41,-0.04 2.15,-0.13 0.73,-0.09 1.44,-0.21 2.1,-0.37 0.7,-0.16 1.33,-0.37 1.87,-0.62l-1.32 -7.82c-0.31,0.15 -0.7,0.32 -1.15,0.5z"/>
    <path class="fil1" d="M545.75 103.29c-0.12,0 -0.24,0 -0.36,0 -1.07,0 -2.14,0.13 -3.16,0.38 -1.08,0.26 -2.18,0.76 -3.28,1.47 -1.07,0.69 -2.17,1.65 -3.31,2.86 -0.35,0.37 -0.7,0.77 -1.08,1.22l0 -5.93 -8.28 0 0 50.25 8.58 0 0 -32.42c1.13,-1.78 2.16,-3.32 3.09,-4.56 0.97,-1.28 1.89,-2.31 2.73,-3.07 0.81,-0.73 1.58,-1.25 2.28,-1.56 0.67,-0.3 1.31,-0.44 2,-0.44 0.2,0 0.4,0.01 0.66,0.03l1.51 0.11 0 -8.3 -1.38 -0.04z"/>
    <path class="fil1" d="M562.97 119.35c0.57,-1.62 1.36,-3.06 2.4,-4.28 1.01,-1.2 2.28,-2.19 3.76,-2.93 1.47,-0.72 3.22,-1.09 5.18,-1.09 3.88,0 6.73,1.13 8.69,3.44 1.78,2.08 2.75,4.98 2.87,8.61l-23.76 0c0.16,-1.29 0.45,-2.54 0.86,-3.75zm25.78 23.37c-0.2,0.08 -0.41,0.17 -0.63,0.28 -0.72,0.34 -1.66,0.72 -2.8,1.14 -1.12,0.42 -2.46,0.8 -4.02,1.14 -1.51,0.33 -3.26,0.5 -5.18,0.5 -2.68,0 -4.94,-0.39 -6.74,-1.15 -1.74,-0.74 -3.16,-1.82 -4.25,-3.19 -1.09,-1.41 -1.9,-3.13 -2.39,-5.13 -0.41,-1.7 -0.65,-3.59 -0.74,-5.64l28.54 0c0.87,0 1.75,-0.31 2.61,-0.91 1.01,-0.72 1.5,-1.91 1.5,-3.55l0 -1.17c0,-2.84 -0.36,-5.58 -1.09,-8.15 -0.74,-2.63 -1.93,-4.98 -3.56,-6.98 -1.63,-2.02 -3.73,-3.65 -6.24,-4.84 -2.52,-1.18 -5.56,-1.78 -9.06,-1.78 -3.25,0 -6.25,0.59 -8.93,1.74 -2.69,1.16 -5.02,2.87 -6.94,5.08 -1.88,2.19 -3.36,4.88 -4.37,7.99 -1,3.07 -1.51,6.58 -1.51,10.44 0,4.01 0.49,7.59 1.45,10.66 0.99,3.13 2.45,5.79 4.35,7.92 1.92,2.15 4.33,3.8 7.14,4.89 2.77,1.08 5.99,1.63 9.55,1.63 2.14,0 4.17,-0.17 6.04,-0.51 1.85,-0.33 3.49,-0.71 4.89,-1.13 0.9,-0.27 1.69,-0.53 2.38,-0.8l0 -8.48z"/>
   </g>
  </g>
 </g>
</svg>
