<?xml version="1.0" encoding="UTF-8"?>
<!DOCTYPE svg PUBLIC "-//W3C//DTD SVG 1.1//EN" "http://www.w3.org/Graphics/SVG/1.1/DTD/svg11.dtd">
<!-- Creator: CorelDRAW -->
<svg xmlns="http://www.w3.org/2000/svg" xml:space="preserve" width="578px" height="168px" version="1.1" style="shape-rendering:geometricPrecision; text-rendering:geometricPrecision; image-rendering:optimizeQuality; fill-rule:evenodd; clip-rule:evenodd"
viewBox="0 0 678.68 197.37"
 xmlns:xlink="http://www.w3.org/1999/xlink"
 xmlns:xodm="http://www.corel.com/coreldraw/odm/2003">
 <defs>
  <style type="text/css">
   <![CDATA[
    .str0 {stroke:black;stroke-width:0.15;stroke-miterlimit:22.9256}
    .fil0 {fill:black}
    .fil4 {fill:#00D2FF;fill-rule:nonzero}
    .fil1 {fill:#00F076;fill-rule:nonzero}
    .fil2 {fill:#F73448;fill-rule:nonzero}
    .fil3 {fill:#FFCA00;fill-rule:nonzero}
    .fil5 {fill:white;fill-rule:nonzero}
   ]]>
  </style>
 </defs>
 <g id="Слой_x0020_1">
  <metadata id="CorelCorpID_0Corel-Layer"/>
  <g id="_2337630225776">
   <rect class="fil0 str0" x="0.07" y="0.07" width="678.53" height="197.22" rx="21.13" ry="21.13"/>
   <g>
    <path class="fil1" d="M145.74 77.74l-20.39 20.26 -59.86 -60.95c3.01,-1.81 6.92,-2.09 10.38,-0.08l69.87 40.77z"/>
    <path class="fil2" d="M146.24 119.33l-70.37 41.06c-4.21,2.46 -9.09,1.5 -12.18,-1.45l61.66 -60.94 20.89 21.33z"/>
    <path class="fil3" d="M166.58 107.47l-20.18 11.77 -0.16 0.09 -20.89 -21.33 20.39 -20.26 0.16 0.09 20.68 12.07c6.72,3.92 6.72,13.64 0,17.57z"/>
    <path class="fil4" d="M63.69 158.94c-0.04,-0.04 -0.09,-0.08 -0.13,-0.12 -1.82,-1.8 -2.99,-4.31 -2.99,-7.22l0 -105.84c0,-3.77 1.97,-6.86 4.77,-8.61 0.05,-0.04 0.1,-0.07 0.15,-0.1l59.86 60.95 -61.66 60.94z"/>
    <path class="fil5" d="M286.82 113.1l-8.15 0 -21.12 0 0 8.11 20.52 0c-2.45,9.03 -10.71,15.67 -20.52,15.67 -11.75,0 -21.27,-9.52 -21.27,-21.27 0,-11.75 9.52,-21.27 21.27,-21.27 5.55,0 10.61,2.13 14.4,5.61l5.73 -5.73c-5.26,-4.96 -12.34,-7.99 -20.13,-7.99 -16.23,0 -29.38,13.15 -29.38,29.38 0,16.22 13.15,29.38 29.38,29.38 16.22,0 29.38,-13.16 29.38,-29.38 0,-0.85 -0.04,-1.69 -0.11,-2.51z"/>
    <path class="fil5" d="M309.94 137.33c-5.68,0 -10.28,-4.97 -10.28,-11.1 0,-6.13 4.6,-11.1 10.28,-11.1 5.68,0 10.28,4.97 10.28,11.1 0,6.13 -4.6,11.1 -10.28,11.1zm0 -30.31c-10.37,0 -18.79,8.47 -18.79,18.91 0,10.45 8.42,18.91 18.79,18.91 10.38,0 18.79,-8.46 18.79,-18.91 0,-10.44 -8.41,-18.91 -18.79,-18.91z"/>
    <path class="fil5" d="M351.74 137.33c-5.68,0 -10.28,-4.97 -10.28,-11.1 0,-6.13 4.6,-11.1 10.28,-11.1 5.68,0 10.29,4.97 10.29,11.1 0,6.13 -4.61,11.1 -10.29,11.1zm0 -30.31c-10.37,0 -18.79,8.47 -18.79,18.91 0,10.45 8.42,18.91 18.79,18.91 10.38,0 18.79,-8.46 18.79,-18.91 0,-10.44 -8.41,-18.91 -18.79,-18.91z"/>
    <polygon class="fil5" points="413.77,145.59 421.88,145.59 421.88,86.23 413.77,86.23 "/>
    <path class="fil5" d="M452.67 117.7l-18.42 7.21c0.11,-1.16 0.4,-2.31 0.89,-3.41 1.18,-2.71 3.35,-4.79 6.1,-5.87 1.31,-0.51 2.67,-0.76 4.02,-0.76 2.71,0 5.37,0.99 7.41,2.83zm2.55 13.09c-1.22,2.5 -3.32,4.43 -5.91,5.45 -2.75,1.07 -5.76,1.02 -8.47,-0.17 -1.72,-0.75 -3.19,-1.91 -4.31,-3.35l27.54 -10.79 -0.42 -1.44c-0.16,-0.53 -0.34,-1.05 -0.54,-1.55 -1.86,-4.76 -5.47,-8.51 -10.16,-10.56 -4.69,-2.05 -9.9,-2.16 -14.66,-0.29 -4.77,1.87 -8.52,5.48 -10.57,10.17 -2.05,4.69 -2.15,9.89 -0.29,14.66 1.87,4.76 5.48,8.52 10.17,10.57 2.46,1.07 5.06,1.61 7.67,1.61 2.36,0 4.72,-0.44 6.99,-1.33 4.56,-1.78 8.23,-5.21 10.33,-9.64l0.72 -1.51 -7.41 -3.24 -0.68 1.41z"/>
    <path class="fil5" d="M391.78 137.33c-5.15,0 -9.32,-4.97 -9.32,-11.1 0,-6.13 4.17,-11.1 9.32,-11.1 5.15,0 9.32,4.97 9.32,11.1 0,6.13 -4.17,11.1 -9.32,11.1zm9.65 -30.31l0 3.33c-2.74,-2.1 -6.07,-3.33 -9.65,-3.33 -9.4,0 -17.02,8.47 -17.02,18.91 0,10.45 7.62,18.91 17.02,18.91 3.58,0 6.91,-1.23 9.65,-3.33l0 4.08c0,2.34 -1.68,8.82 -9.33,8.82 -7.65,0 -9.8,-6.84 -9.8,-6.84l-7.35 3.43c0,0 2.76,10.79 17.88,10.79 8.19,0 12.41,-4.75 14.56,-9.11 1.46,-2.95 2.15,-6.22 2.15,-9.51l0 -36.15 -8.11 0z"/>
    <polygon class="fil5" points="492.17,145.59 500.28,145.59 500.28,86.23 492.17,86.23 "/>
    <path class="fil5" d="M511.63 86.23l0 8.11c5.68,0 10.28,4.97 10.28,11.1 0,6.13 -4.6,11.1 -10.28,11.1l0 7.51c10.38,0 18.79,-8.47 18.79,-18.91 0,-10.44 -8.41,-18.91 -18.79,-18.91z"/>
    <polygon class="fil5" points="498.01,94.34 511.63,94.34 511.63,86.23 498.01,86.23 "/>
    <polygon class="fil5" points="498.01,124.05 511.63,124.05 511.63,116.54 498.01,116.54 "/>
    <polygon class="fil5" points="534.64,145.59 542.75,145.59 542.75,86.23 534.64,86.23 "/>
    <path class="fil5" d="M565 138.22c-1.22,0.75 -2.58,1.12 -4.04,1.12 -1.75,0 -3.15,-0.46 -4.15,-1.37 -1.03,-0.93 -1.56,-2.21 -1.56,-3.8 0,-0.93 0.19,-1.77 0.54,-2.5 0.37,-0.74 0.94,-1.38 1.71,-1.89 0.75,-0.5 1.72,-0.88 2.89,-1.12 1.13,-0.24 2.51,-0.36 4.1,-0.36l4.25 0 0 6.62 -0.14 0.16c-1.2,1.37 -2.42,2.42 -3.6,3.14zm4.25 2.19l0.99 -1.07 0 5.68 6.83 0 0 -24.5c0,-2.28 -0.28,-4.27 -0.82,-5.92 -0.52,-1.61 -1.37,-2.93 -2.52,-3.95 -1.15,-1.02 -2.65,-1.79 -4.46,-2.29 -1.85,-0.51 -4.11,-0.76 -6.73,-0.76 -1.47,0 -2.91,0.12 -4.3,0.35 -1.38,0.24 -2.68,0.55 -3.85,0.92 -1.01,0.33 -1.93,0.68 -2.72,1.05l0.44 6.42c0.49,-0.25 1.06,-0.52 1.68,-0.79 1,-0.45 2.15,-0.86 3.44,-1.22 1.31,-0.37 2.81,-0.56 4.46,-0.56 1.28,0 2.38,0.14 3.26,0.41 0.93,0.28 1.68,0.73 2.25,1.35 0.56,0.6 0.97,1.36 1.2,2.25 0.23,0.85 0.34,1.85 0.34,2.97l0 2.64 -3.9 0c-2.99,0 -5.65,0.23 -7.9,0.68 -2.22,0.45 -4.1,1.14 -5.58,2.05 -1.45,0.9 -2.56,2.05 -3.29,3.43 -0.73,1.37 -1.1,3.03 -1.1,4.92 0,1.75 0.29,3.3 0.87,4.6 0.58,1.29 1.4,2.39 2.43,3.26 1.05,0.88 2.32,1.56 3.75,2 1.47,0.46 3.09,0.69 4.84,0.69 2.1,0 4.03,-0.41 5.76,-1.22 1.72,-0.8 3.28,-1.95 4.63,-3.39z"/>
    <polygon class="fil5" points="609.27,107.66 603.34,121.36 599.7,129.79 597.23,124.08 590.13,107.66 581.29,107.66 592.82,134.3 595.38,140.24 588.7,156.58 597.53,156.58 603.35,141.79 607.76,131.58 618.11,107.66 "/>
    <path class="fil5" d="M277.38 64.13c0,0.19 -0.02,0.37 -0.05,0.52 -0.03,0.15 -0.08,0.28 -0.14,0.38 -0.07,0.11 -0.15,0.19 -0.24,0.24 -0.09,0.05 -0.19,0.08 -0.3,0.08l-13.76 0c-0.27,0 -0.56,-0.1 -0.84,-0.31 -0.29,-0.2 -0.43,-0.57 -0.43,-1.12l0 -26.53c0,-0.54 0.14,-0.92 0.43,-1.12 0.28,-0.21 0.57,-0.31 0.84,-0.31l13.56 0c0.1,0 0.2,0.03 0.29,0.08 0.09,0.05 0.17,0.13 0.23,0.24 0.06,0.11 0.11,0.24 0.14,0.4 0.03,0.15 0.04,0.34 0.04,0.55 0,0.2 -0.01,0.37 -0.04,0.52 -0.03,0.16 -0.08,0.28 -0.14,0.38 -0.06,0.1 -0.14,0.17 -0.23,0.23 -0.09,0.05 -0.19,0.08 -0.29,0.08l-12.06 0 0 10.33 10.4 0c0.12,0 0.23,0.03 0.32,0.08 0.09,0.05 0.17,0.13 0.23,0.23 0.06,0.1 0.1,0.22 0.13,0.38 0.03,0.16 0.05,0.35 0.05,0.56 0,0.2 -0.02,0.37 -0.05,0.51 -0.03,0.15 -0.07,0.26 -0.13,0.35 -0.06,0.09 -0.14,0.16 -0.23,0.21 -0.09,0.04 -0.2,0.07 -0.32,0.07l-10.4 0 0 11.71 12.26 0c0.11,0 0.21,0.03 0.3,0.09 0.09,0.05 0.17,0.12 0.24,0.22 0.06,0.1 0.11,0.23 0.14,0.39 0.03,0.16 0.05,0.34 0.05,0.56z"/>
    <path class="fil5" d="M302.16 37.23c0,0.2 -0.02,0.37 -0.05,0.52 -0.03,0.16 -0.07,0.28 -0.13,0.38 -0.06,0.1 -0.14,0.17 -0.23,0.23 -0.09,0.05 -0.19,0.08 -0.29,0.08l-8.77 0 0 26.46c0,0.09 -0.03,0.17 -0.07,0.25 -0.05,0.07 -0.12,0.13 -0.23,0.18 -0.1,0.04 -0.25,0.08 -0.43,0.11 -0.18,0.03 -0.4,0.05 -0.66,0.05 -0.26,0 -0.47,-0.02 -0.66,-0.05 -0.18,-0.03 -0.32,-0.07 -0.43,-0.11 -0.1,-0.05 -0.18,-0.11 -0.23,-0.18 -0.04,-0.08 -0.06,-0.16 -0.06,-0.25l0 -26.46 -8.77 0c-0.12,0 -0.22,-0.03 -0.31,-0.08 -0.08,-0.06 -0.15,-0.13 -0.21,-0.23 -0.06,-0.1 -0.11,-0.22 -0.14,-0.38 -0.03,-0.15 -0.04,-0.32 -0.04,-0.52 0,-0.21 0.01,-0.4 0.04,-0.55 0.03,-0.16 0.08,-0.29 0.14,-0.4 0.06,-0.11 0.13,-0.19 0.21,-0.24 0.09,-0.05 0.19,-0.08 0.31,-0.08l20.31 0c0.1,0 0.2,0.03 0.29,0.08 0.09,0.05 0.17,0.13 0.23,0.24 0.06,0.11 0.1,0.24 0.13,0.4 0.03,0.15 0.05,0.34 0.05,0.55z"/>
    <path class="fil5" d="M320.13 64.9c0,0.09 -0.03,0.17 -0.07,0.25 -0.05,0.07 -0.12,0.13 -0.23,0.18 -0.1,0.04 -0.25,0.08 -0.42,0.11 -0.17,0.03 -0.4,0.05 -0.67,0.05 -0.26,0 -0.48,-0.02 -0.66,-0.05 -0.18,-0.03 -0.32,-0.07 -0.43,-0.11 -0.11,-0.05 -0.18,-0.11 -0.23,-0.18 -0.04,-0.08 -0.07,-0.16 -0.07,-0.25l0 -28.49c0,-0.09 0.03,-0.17 0.08,-0.24 0.06,-0.08 0.14,-0.14 0.25,-0.19 0.12,-0.04 0.26,-0.08 0.44,-0.11 0.17,-0.03 0.38,-0.05 0.62,-0.05 0.27,0 0.5,0.02 0.67,0.05 0.17,0.03 0.32,0.07 0.42,0.11 0.11,0.05 0.18,0.11 0.23,0.19 0.04,0.07 0.07,0.15 0.07,0.24l0 28.49z"/>
    <path class="fil5" d="M346.52 37.23c0,0.2 -0.02,0.37 -0.05,0.52 -0.03,0.16 -0.07,0.28 -0.13,0.38 -0.06,0.1 -0.14,0.17 -0.23,0.23 -0.09,0.05 -0.19,0.08 -0.29,0.08l-8.77 0 0 26.46c0,0.09 -0.03,0.17 -0.07,0.25 -0.05,0.07 -0.12,0.13 -0.23,0.18 -0.1,0.04 -0.25,0.08 -0.43,0.11 -0.18,0.03 -0.4,0.05 -0.66,0.05 -0.26,0 -0.48,-0.02 -0.66,-0.05 -0.18,-0.03 -0.32,-0.07 -0.43,-0.11 -0.11,-0.05 -0.18,-0.11 -0.23,-0.18 -0.04,-0.08 -0.06,-0.16 -0.06,-0.25l0 -26.46 -8.77 0c-0.12,0 -0.23,-0.03 -0.31,-0.08 -0.08,-0.06 -0.15,-0.13 -0.21,-0.23 -0.06,-0.1 -0.11,-0.22 -0.14,-0.38 -0.03,-0.15 -0.05,-0.32 -0.05,-0.52 0,-0.21 0.02,-0.4 0.05,-0.55 0.03,-0.16 0.08,-0.29 0.14,-0.4 0.06,-0.11 0.13,-0.19 0.21,-0.24 0.08,-0.05 0.19,-0.08 0.31,-0.08l20.31 0c0.1,0 0.2,0.03 0.29,0.08 0.09,0.05 0.17,0.13 0.23,0.24 0.06,0.11 0.1,0.24 0.13,0.4 0.03,0.15 0.05,0.34 0.05,0.55z"/>
    <path class="fil5" d="M382.41 50.57c0,-1.75 -0.17,-3.38 -0.49,-4.9 -0.33,-1.52 -0.86,-2.85 -1.61,-3.97 -0.75,-1.13 -1.75,-2.02 -2.99,-2.66 -1.24,-0.65 -2.78,-0.97 -4.61,-0.97 -1.82,0 -3.35,0.34 -4.6,1.01 -1.25,0.68 -2.27,1.58 -3.04,2.72 -0.79,1.13 -1.35,2.46 -1.69,3.97 -0.34,1.52 -0.51,3.11 -0.51,4.8 0,1.78 0.16,3.44 0.47,4.98 0.31,1.54 0.83,2.87 1.58,4.01 0.74,1.14 1.73,2.03 2.97,2.67 1.24,0.64 2.8,0.96 4.66,0.96 1.85,0 3.4,-0.34 4.65,-1.03 1.26,-0.69 2.28,-1.61 3.05,-2.77 0.77,-1.16 1.32,-2.5 1.66,-4.02 0.33,-1.52 0.5,-3.12 0.5,-4.8zm2.95 -0.26c0,2.35 -0.27,4.48 -0.81,6.38 -0.54,1.9 -1.34,3.52 -2.42,4.86 -1.07,1.34 -2.43,2.37 -4.06,3.1 -1.64,0.72 -3.55,1.09 -5.73,1.09 -2.18,0 -4.05,-0.35 -5.62,-1.04 -1.56,-0.68 -2.85,-1.67 -3.86,-2.95 -1.01,-1.28 -1.75,-2.84 -2.23,-4.69 -0.47,-1.85 -0.71,-3.93 -0.71,-6.24 0,-2.31 0.26,-4.4 0.79,-6.27 0.53,-1.88 1.34,-3.48 2.42,-4.81 1.08,-1.32 2.44,-2.35 4.07,-3.08 1.63,-0.72 3.54,-1.09 5.73,-1.09 2.14,0 3.99,0.35 5.55,1.03 1.56,0.68 2.85,1.65 3.87,2.93 1.02,1.27 1.78,2.81 2.27,4.63 0.49,1.82 0.74,3.87 0.74,6.15z"/>
    <path class="fil5" d="M413.25 64.01c0,0.27 -0.04,0.5 -0.12,0.68 -0.09,0.19 -0.2,0.33 -0.32,0.45 -0.13,0.11 -0.28,0.19 -0.43,0.23 -0.16,0.05 -0.31,0.07 -0.45,0.07l-0.57 0c-0.3,0 -0.57,-0.04 -0.82,-0.11 -0.25,-0.08 -0.5,-0.21 -0.73,-0.4 -0.24,-0.19 -0.47,-0.44 -0.7,-0.76 -0.24,-0.32 -0.5,-0.73 -0.79,-1.23l-10.36 -18.35c-0.51,-0.89 -1.03,-1.81 -1.55,-2.76 -0.52,-0.94 -1.02,-1.86 -1.49,-2.76l-0.02 0c0.01,1.11 0.02,2.24 0.02,3.4 0,1.16 0,2.29 0,3.39l0 19.04c0,0.09 -0.02,0.17 -0.07,0.25 -0.04,0.07 -0.12,0.13 -0.22,0.18 -0.11,0.04 -0.25,0.08 -0.43,0.11 -0.17,0.03 -0.39,0.05 -0.67,0.05 -0.25,0 -0.47,-0.02 -0.65,-0.05 -0.19,-0.03 -0.33,-0.07 -0.43,-0.11 -0.11,-0.05 -0.19,-0.11 -0.23,-0.18 -0.05,-0.08 -0.07,-0.16 -0.07,-0.25l0 -27.51c0,-0.54 0.14,-0.92 0.43,-1.12 0.29,-0.21 0.57,-0.31 0.84,-0.31l1.14 0c0.36,0 0.66,0.03 0.91,0.09 0.24,0.06 0.46,0.16 0.65,0.31 0.2,0.14 0.39,0.35 0.58,0.61 0.19,0.27 0.4,0.6 0.63,1.01l7.92 14.06c0.5,0.88 0.98,1.72 1.42,2.54 0.45,0.8 0.89,1.6 1.31,2.38 0.42,0.78 0.84,1.55 1.26,2.3 0.42,0.76 0.83,1.53 1.24,2.3l0.02 0c-0.01,-1.27 -0.02,-2.6 -0.02,-3.98 0,-1.37 0,-2.7 0,-3.97l0 -17.1c0,-0.1 0.02,-0.18 0.07,-0.25 0.04,-0.08 0.12,-0.14 0.23,-0.2 0.1,-0.05 0.24,-0.09 0.41,-0.11 0.18,-0.02 0.4,-0.03 0.67,-0.03 0.25,0 0.46,0.01 0.64,0.03 0.18,0.02 0.33,0.06 0.43,0.11 0.11,0.06 0.19,0.12 0.24,0.2 0.05,0.07 0.08,0.15 0.08,0.25l0 27.5z"/>
    <path class="fil5" d="M228.17 50.63c0,7.93 6.45,14.38 14.38,14.38 7.93,0 14.38,-6.45 14.38,-14.38 0,-0.2 -0.01,-0.4 -0.01,-0.61l-13.69 0 0 2.8 10.73 0 -0.23 0.86c-1.37,5.02 -5.97,8.54 -11.18,8.54 -6.39,0 -11.58,-5.2 -11.58,-11.59 0,-6.38 5.19,-11.58 11.58,-11.58 2.69,0 5.28,0.93 7.35,2.63l1.98 -1.99c-2.6,-2.22 -5.89,-3.44 -9.33,-3.44 -7.93,0 -14.38,6.45 -14.38,14.38z"/>
   </g>
  </g>
 </g>
</svg>
