<?xml version="1.0" encoding="UTF-8"?>
<!DOCTYPE svg PUBLIC "-//W3C//DTD SVG 1.1//EN" "http://www.w3.org/Graphics/SVG/1.1/DTD/svg11.dtd">
<!-- Creator: CorelDRAW -->
<svg xmlns="http://www.w3.org/2000/svg" xml:space="preserve" width="574px" height="167px" version="1.1" style="shape-rendering:geometricPrecision; text-rendering:geometricPrecision; image-rendering:optimizeQuality; fill-rule:evenodd; clip-rule:evenodd"
viewBox="0 0 673.98 196"
 xmlns:xlink="http://www.w3.org/1999/xlink"
 xmlns:xodm="http://www.corel.com/coreldraw/odm/2003">
 <defs>
  <style type="text/css">
   <![CDATA[
    .str0 {stroke:black;stroke-width:0.15;stroke-miterlimit:22.9256}
    .fil0 {fill:black}
    .fil3 {fill:white}
    .fil2 {fill:#0077FF;fill-rule:nonzero}
    .fil1 {fill:white;fill-rule:nonzero}
   ]]>
  </style>
 </defs>
 <g id="Слой_x0020_1">
  <metadata id="CorelCorpID_0Corel-Layer"/>
  <g id="_2337634037280">
   <rect class="fil0 str0" x="0.07" y="0.07" width="673.84" height="195.86" rx="20.98" ry="20.98"/>
   <g>
    <path class="fil1" d="M282.82 139.28c10.11,-2.61 16.77,-10.4 16.77,-20.6 0,-12.61 -10.02,-21.48 -24.09,-21.48l-25.05 0 0 67.87 11.56 0 0 -24.95 8.2 0 17.93 24.95 13.58 0 -18.9 -25.81 0 0.02zm-7.32 -31.49c7.23,0 12.24,4.44 12.24,10.89 0,6.45 -5.01,10.89 -12.24,10.89l-13.49 0 0 -21.76 13.49 0 0 -0.02z"/>
    <path class="fil1" d="M327.75 166.04c6.07,0 11.67,-3.18 14.84,-8.48l2.21 7.51 8.28 0 0 -50.07 -11.08 0 0 28.99c0,7.12 -4.73,12.12 -11.18,12.12 -6.46,0 -10.79,-5 -10.79,-12.12l0 -28.99 -11.07 0 0 30.23c0,12.04 8.09,20.81 18.79,20.81z"/>
    <path class="fil1" d="M388.44 166.04c12.83,0 23.42,-7.32 23.42,-19.45 0,-13.58 -11.08,-17.53 -20.62,-20.81 -7.42,-2.5 -13.87,-4.81 -13.87,-10.89 0,-5.29 4.92,-8.09 10.7,-8.09 6.07,0 10.4,3.17 12.82,8.58l10.99 -1.83c-3.47,-10.6 -12.23,-17.34 -24.19,-17.34 -11.96,0 -22.16,7.12 -22.16,19.25 0,13.68 11.08,17.42 20.62,20.6 7.32,2.4 13.88,4.71 13.88,10.89 0,5.4 -4.92,8.47 -11.48,8.47 -7.53,0 -11.56,-3.55 -15.14,-10.01l-11.18 1.94c3.28,11.45 13.69,18.69 26.21,18.69z"/>
    <path class="fil1" d="M442 155.44c-3.76,0 -5.59,-1.82 -5.59,-5.59l0 -25.22 14.95 0 0 -9.63 -14.95 0 0 -14.44 -8.28 0 -2.8 14.44 -8.19 0 0 9.63 8.19 0 0 25.22c0,9.82 5.68,15.22 16.67,15.22l9.36 0 0.97 -9.63 -10.33 0z"/>
    <path class="fil1" d="M483.98 166.04c15.7,0 26.78,-10.79 26.78,-26 0,-15.22 -11.08,-26.01 -26.78,-26.01 -15.7,0 -26.78,10.79 -26.78,26.01 0,15.21 11.08,26 26.78,26zm0 -10.11c-9.06,0 -15.22,-6.46 -15.22,-15.89 0,-9.44 6.16,-15.9 15.22,-15.9 9.06,0 15.22,6.46 15.22,15.9 0,9.43 -6.16,15.89 -15.22,15.89z"/>
    <path class="fil1" d="M531.49 165.07l0 -29.56c0,-6.34 3.09,-9.92 9.83,-9.92l6.37 0 -0.96 -10.59 -2.13 0c-5.88,0 -10.4,1.64 -13.79,7.23l-2.12 -7.23 -8.28 0 0 50.07 11.08 0z"/>
    <g>
     <path class="fil1" d="M602.21 139.46c0,-14.44 -10.78,-25.41 -26.03,-25.41 -15.24,0 -26.02,10.89 -26.02,26 0,15.12 10.78,26 26.02,26 10.41,0 20.25,-4.91 23.99,-14.44l-10.41 -1.74c-2.42,3.57 -7.04,6.07 -12.9,6.07 -8.47,0 -14.07,-5.19 -15.14,-12.9l40.28 0c0.1,-1.05 0.19,-2.21 0.19,-3.58l0.02 0zm-26.05 -15.78c6.94,0 12.15,4.43 13.98,10.68l-27.75 0c1.83,-6.46 7.05,-10.68 13.79,-10.68l-0.02 0zm0 0l0 0 0 0z"/>
    </g>
    <path class="fil2" d="M81.2 155.75c9.43,9.41 24.58,9.41 54.9,9.41l5.35 0c30.33,0 45.48,0 54.9,-9.41 9.43,-9.41 9.43,-24.58 9.43,-54.91l0 -5.36c0,-30.33 0,-45.5 -9.43,-54.91 -9.42,-9.41 -24.6,-9.41 -54.9,-9.41l-5.35 0c-30.32,0 -45.5,0 -54.9,9.41 -9.43,9.43 -9.43,24.6 -9.43,54.91l0 5.36c0,30.33 0,45.5 9.43,54.91z"/>
    <g>
     <path class="fil3" d="M175.23 120.23l-9.05 -2.26c-1.09,-0.31 -1.86,-1.3 -1.9,-2.43l-1.13 -33.32c-0.34,-4.41 -3.6,-7.93 -7.02,-8.95 -0.19,-0.06 -0.4,0 -0.51,0.19 -0.12,0.16 -0.06,0.39 0.09,0.52 0.83,0.65 3.17,2.78 3.17,6.46l0 43.58c0,4.2 -3.99,7.3 -8.08,6.27l-9.2 -2.3c-1.02,-0.36 -1.73,-1.3 -1.76,-2.4l-1.12 -33.33c-0.34,-4.41 -3.6,-7.93 -7.03,-8.95 -0.18,-0.06 -0.39,0 -0.5,0.19 -0.12,0.16 -0.06,0.39 0.09,0.52 0.83,0.65 3.17,2.78 3.17,6.46l0 36.32 0 7.26c0,4.2 -3.97,7.3 -8.06,6.27l-25.96 -6.48c-3.62,-0.9 -6.14,-4.14 -6.14,-7.85l0 -43.63c0,-4.21 3.97,-7.3 8.06,-6.28l16.37 4.08 0 -7.86c0,-4.21 3.97,-7.31 8.06,-6.28l16.37 4.08 0 -7.87c0,-4.2 3.97,-7.3 8.06,-6.27l25.96 6.48c3.62,0.9 6.14,4.15 6.14,7.85l0 43.63c0,4.21 -3.96,7.3 -8.06,6.28l-0.02 0.02zm0 0l0 0 0 0z"/>
    </g>
    <path class="fil1" d="M266.24 65.14c-3.17,0 -6.02,-0.74 -8.55,-2.21 -2.54,-1.51 -4.52,-3.59 -5.97,-6.25 -1.41,-2.66 -2.11,-5.66 -2.11,-8.99 0,-3.34 0.7,-6.32 2.11,-8.94 1.45,-2.66 3.42,-4.73 5.92,-6.21 2.53,-1.5 5.38,-2.26 8.55,-2.26 3.43,0 6.48,0.87 9.14,2.6 2.69,1.7 4.62,4.01 5.77,6.92l-4.9 0.77c-0.9,-1.79 -2.23,-3.19 -4,-4.18 -1.73,-1.03 -3.68,-1.54 -5.86,-1.54 -2.24,0 -4.25,0.55 -6.01,1.64 -1.73,1.09 -3.09,2.61 -4.09,4.56 -0.96,1.93 -1.44,4.14 -1.44,6.64 0,2.53 0.48,4.77 1.44,6.73 1,1.92 2.37,3.43 4.14,4.52 1.76,1.09 3.78,1.63 6.06,1.63 2.24,0 4.23,-0.51 5.96,-1.54 1.76,-1.05 3.11,-2.53 4.04,-4.42l4.9 0.77c-1.22,2.98 -3.19,5.35 -5.91,7.12 -2.73,1.76 -5.79,2.64 -9.19,2.64z"/>
    <polygon class="fil1" points="306.94,64.66 300.74,64.66 291.56,54.37 290.07,54.37 290.07,64.66 285.36,64.66 285.36,39.8 290.07,39.8 290.07,49.85 291.51,49.85 300.31,39.8 305.98,39.8 295.31,51.82 "/>
    <path class="fil1" d="M318.63 39.32c3.07,0 5.49,1.01 7.26,3.03 1.79,1.99 2.69,4.78 2.69,8.37l0 13.94 -3.37 0 -1.1 -3.89c-0.8,1.24 -1.88,2.29 -3.22,3.12 -1.35,0.83 -2.97,1.25 -4.86,1.25 -1.67,0 -3.16,-0.34 -4.47,-1.01 -1.31,-0.67 -2.34,-1.6 -3.08,-2.79 -0.74,-1.22 -1.1,-2.58 -1.1,-4.08 0,-2.34 0.93,-4.22 2.78,-5.63 1.86,-1.41 4.56,-2.11 8.08,-2.11l5.63 0c-0.13,-1.96 -0.68,-3.47 -1.64,-4.53 -0.96,-1.08 -2.24,-1.63 -3.84,-1.63 -1.22,0 -2.3,0.29 -3.23,0.87 -0.92,0.57 -1.63,1.33 -2.11,2.25l-4.38 -0.71c0.65,-1.99 1.88,-3.56 3.71,-4.72 1.82,-1.15 3.91,-1.73 6.25,-1.73zm-1.59 21.83c2.02,0 3.65,-0.66 4.9,-1.97 1.29,-1.35 1.93,-3.19 1.93,-5.53l0 -0.29 -5.48 0c-4.17,0 -6.25,1.25 -6.25,3.75 0,1.22 0.45,2.2 1.34,2.93 0.9,0.74 2.09,1.11 3.56,1.11z"/>
    <path class="fil1" d="M347.52 55.62c-0.77,0.35 -1.68,0.63 -2.74,0.82 -1.06,0.19 -2.1,0.29 -3.12,0.29 -2.98,0 -5.27,-0.84 -6.88,-2.5 -1.6,-1.67 -2.4,-4.03 -2.4,-7.07l0 -7.36 4.71 0 0 7.36c0,3.56 1.72,5.33 5.15,5.33 2.08,0 3.84,-0.36 5.28,-1.1l0 -11.59 4.71 0 0 24.86 -4.71 0 0 -9.04z"/>
    <path class="fil1" d="M368.04 39.32c3.08,0 5.5,1.01 7.26,3.03 1.8,1.99 2.69,4.78 2.69,8.37l0 13.94 -3.36 0 -1.11 -3.89c-0.8,1.24 -1.87,2.29 -3.22,3.12 -1.34,0.83 -2.96,1.25 -4.85,1.25 -1.67,0 -3.16,-0.34 -4.48,-1.01 -1.31,-0.67 -2.33,-1.6 -3.07,-2.79 -0.74,-1.22 -1.11,-2.58 -1.11,-4.08 0,-2.34 0.93,-4.22 2.79,-5.63 1.86,-1.41 4.55,-2.11 8.08,-2.11l5.62 0c-0.12,-1.96 -0.67,-3.47 -1.63,-4.53 -0.96,-1.08 -2.24,-1.63 -3.85,-1.63 -1.22,0 -2.29,0.29 -3.22,0.87 -0.93,0.57 -1.63,1.33 -2.11,2.25l-4.38 -0.71c0.64,-1.99 1.88,-3.56 3.7,-4.72 1.83,-1.15 3.91,-1.73 6.25,-1.73zm-1.58 21.83c2.01,0 3.65,-0.66 4.9,-1.97 1.28,-1.35 1.92,-3.19 1.92,-5.53l0 -0.29 -5.48 0c-4.16,0 -6.25,1.25 -6.25,3.75 0,1.22 0.45,2.2 1.35,2.93 0.9,0.74 2.08,1.11 3.56,1.11z"/>
    <path class="fil1" d="M390.69 64.66l-6.97 0 0 -24.86 4.56 0 0 19.57 0.73 0 10.04 -19.57 6.98 0 0 24.86 -4.57 0 0 -19.52 -0.72 0 -10.05 19.52zm4.23 -28.08c-2.08,0 -3.83,-0.54 -5.24,-1.63 -1.38,-1.12 -2.2,-2.79 -2.45,-5l3.84 0c0.16,1.02 0.56,1.81 1.2,2.35 0.68,0.52 1.56,0.77 2.65,0.77 1.09,0 1.95,-0.25 2.6,-0.77 0.67,-0.54 1.07,-1.33 1.2,-2.35l3.89 0c-0.29,2.21 -1.14,3.88 -2.55,5 -1.37,1.09 -3.09,1.63 -5.14,1.63z"/>
    <polygon class="fil1" points="422.88,64.66 418.17,64.66 418.17,44.13 409.57,44.13 409.57,39.8 431.49,39.8 431.49,44.13 422.88,44.13 "/>
    <path class="fil1" d="M458.2 52.06c0,0.64 -0.01,1.14 -0.04,1.49l-20.53 0c0.25,2.21 1.12,3.98 2.59,5.29 1.48,1.32 3.35,1.97 5.63,1.97 1.57,0 2.96,-0.3 4.18,-0.91 1.25,-0.64 2.2,-1.47 2.84,-2.5l4.42 0.72c-0.96,2.24 -2.51,3.97 -4.66,5.19 -2.12,1.22 -4.47,1.83 -7.07,1.83 -2.47,0 -4.68,-0.54 -6.63,-1.64 -1.96,-1.12 -3.48,-2.65 -4.57,-4.61 -1.09,-1.95 -1.64,-4.17 -1.64,-6.64 0,-2.49 0.55,-4.72 1.64,-6.68 1.09,-1.95 2.6,-3.47 4.52,-4.57 1.92,-1.12 4.12,-1.68 6.58,-1.68 2.44,0 4.62,0.56 6.54,1.68 1.96,1.1 3.48,2.62 4.57,4.57 1.09,1.93 1.63,4.09 1.63,6.49zm-12.74 -8.55c-1.89,0 -3.52,0.56 -4.9,1.68 -1.35,1.12 -2.24,2.63 -2.69,4.52l15.19 0c-0.42,-1.86 -1.31,-3.35 -2.69,-4.47 -1.35,-1.16 -2.98,-1.73 -4.91,-1.73z"/>
    <polygon class="fil1" points="479.38,64.66 472.41,64.66 472.41,39.8 476.98,39.8 476.98,59.37 477.7,59.37 487.74,39.8 494.72,39.8 494.72,64.66 490.15,64.66 490.15,45.14 489.43,45.14 "/>
    <path class="fil1" d="M514.27 51.97c1.31,0.38 2.4,1.09 3.27,2.11 0.86,1 1.3,2.23 1.3,3.7 0,1.38 -0.41,2.63 -1.21,3.75 -0.8,1.09 -1.95,1.97 -3.46,2.65 -1.47,0.64 -3.19,0.96 -5.14,0.96 -2.63,0 -4.89,-0.61 -6.78,-1.83 -1.89,-1.25 -3.14,-2.91 -3.75,-5l4.37 -0.72c1.06,2.31 3.09,3.46 6.11,3.46 1.67,0 2.93,-0.3 3.8,-0.91 0.89,-0.64 1.34,-1.52 1.34,-2.65 0,-0.99 -0.41,-1.79 -1.25,-2.4 -0.8,-0.61 -2.1,-0.91 -3.89,-0.91l-3.27 0 0 -4.14 3.27 0c1.54,0 2.71,-0.28 3.51,-0.86 0.83,-0.58 1.25,-1.35 1.25,-2.31 0,-1.02 -0.45,-1.86 -1.35,-2.5 -0.86,-0.64 -1.94,-0.96 -3.22,-0.96 -1.25,0 -2.37,0.3 -3.37,0.91 -0.99,0.61 -1.74,1.45 -2.25,2.5l-4.38 -0.77c0.74,-2.14 2,-3.79 3.8,-4.95 1.83,-1.18 3.94,-1.78 6.35,-1.78 1.73,0 3.28,0.31 4.66,0.92 1.41,0.6 2.5,1.45 3.27,2.54 0.8,1.09 1.2,2.31 1.2,3.66 0,1.38 -0.38,2.55 -1.15,3.51 -0.77,0.96 -1.78,1.63 -3.03,2.02z"/>
   </g>
  </g>
 </g>
</svg>
